<mxfile host="app.diagrams.net" modified="2023-04-13T16:35:48.673Z" agent="Mozilla/5.0 (Macintosh; Intel Mac OS X 10_15_7) AppleWebKit/537.36 (KHTML, like Gecko) Chrome/112.0.0.0 Safari/537.36" etag="m2RgIlUfmbRA3UvEbkt2" version="21.1.7" type="device">
  <diagram name="Strona-1" id="Ms_R-_G8IsawaYmVdw3W">
    <mxGraphModel dx="2680" dy="2974" grid="1" gridSize="10" guides="1" tooltips="1" connect="1" arrows="1" fold="1" page="1" pageScale="1" pageWidth="827" pageHeight="1169" math="0" shadow="0">
      <root>
        <mxCell id="0" />
        <mxCell id="1" parent="0" />
        <mxCell id="nUhhS1LO_QYxUFvbYe5S-23" value="Implements" style="endArrow=block;dashed=1;endFill=0;endSize=12;html=1;rounded=0;" parent="1" source="oweBOw8QxQyaaeUaKl41-113" target="oweBOw8QxQyaaeUaKl41-197" edge="1">
          <mxGeometry width="160" relative="1" as="geometry">
            <mxPoint x="180" y="260" as="sourcePoint" />
            <mxPoint x="340" y="260" as="targetPoint" />
          </mxGeometry>
        </mxCell>
        <mxCell id="nUhhS1LO_QYxUFvbYe5S-24" value="Implements" style="endArrow=block;dashed=1;endFill=0;endSize=12;html=1;rounded=0;" parent="1" source="oweBOw8QxQyaaeUaKl41-162" target="oweBOw8QxQyaaeUaKl41-197" edge="1">
          <mxGeometry width="160" relative="1" as="geometry">
            <mxPoint x="263" y="-50" as="sourcePoint" />
            <mxPoint x="690" y="-430" as="targetPoint" />
          </mxGeometry>
        </mxCell>
        <mxCell id="nUhhS1LO_QYxUFvbYe5S-25" value="Extends" style="endArrow=block;endSize=16;endFill=0;html=1;rounded=0;" parent="1" source="oweBOw8QxQyaaeUaKl41-113" target="oweBOw8QxQyaaeUaKl41-162" edge="1">
          <mxGeometry width="160" relative="1" as="geometry">
            <mxPoint x="300" y="-10" as="sourcePoint" />
            <mxPoint x="430" y="-10" as="targetPoint" />
          </mxGeometry>
        </mxCell>
        <mxCell id="mMlVKi66fa48Q-Bd6638-8" value="" style="rounded=0;orthogonalLoop=1;jettySize=auto;html=1;endArrow=none;endFill=0;sketch=0;sourcePerimeterSpacing=0;targetPerimeterSpacing=0;" parent="1" source="oweBOw8QxQyaaeUaKl41-205" target="mMlVKi66fa48Q-Bd6638-10" edge="1">
          <mxGeometry relative="1" as="geometry">
            <mxPoint x="320" y="-1072" as="sourcePoint" />
          </mxGeometry>
        </mxCell>
        <mxCell id="mMlVKi66fa48Q-Bd6638-9" value="" style="rounded=0;orthogonalLoop=1;jettySize=auto;html=1;endArrow=halfCircle;endFill=0;entryX=0.5;entryY=0.5;endSize=6;strokeWidth=1;sketch=0;" parent="1" source="oweBOw8QxQyaaeUaKl41-220" target="mMlVKi66fa48Q-Bd6638-10" edge="1">
          <mxGeometry relative="1" as="geometry">
            <mxPoint x="360" y="-1072" as="sourcePoint" />
          </mxGeometry>
        </mxCell>
        <mxCell id="mMlVKi66fa48Q-Bd6638-10" value="" style="ellipse;whiteSpace=wrap;html=1;align=center;aspect=fixed;resizable=0;points=[];outlineConnect=0;sketch=0;container=0;" parent="1" vertex="1">
          <mxGeometry x="120" y="-1250" width="10" height="10" as="geometry" />
        </mxCell>
        <mxCell id="HJ6jIR_0lIMdKX0wm8NF-7" value="" style="endArrow=diamondThin;endFill=1;endSize=24;html=1;rounded=0;" parent="1" source="oweBOw8QxQyaaeUaKl41-119" target="oweBOw8QxQyaaeUaKl41-69" edge="1">
          <mxGeometry width="160" relative="1" as="geometry">
            <mxPoint x="210" y="300.5" as="sourcePoint" />
            <mxPoint x="350" y="330" as="targetPoint" />
          </mxGeometry>
        </mxCell>
        <mxCell id="HJ6jIR_0lIMdKX0wm8NF-10" value="" style="endArrow=diamondThin;endFill=0;endSize=24;html=1;rounded=0;" parent="1" source="oweBOw8QxQyaaeUaKl41-35" target="oweBOw8QxQyaaeUaKl41-113" edge="1">
          <mxGeometry width="160" relative="1" as="geometry">
            <mxPoint x="190" y="130" as="sourcePoint" />
            <mxPoint x="60" y="310" as="targetPoint" />
          </mxGeometry>
        </mxCell>
        <mxCell id="r2bzVPtzK4Y9AJpjgJ-l-1" value="" style="endArrow=diamondThin;endFill=1;endSize=24;html=1;rounded=0;" parent="1" source="oweBOw8QxQyaaeUaKl41-63" target="oweBOw8QxQyaaeUaKl41-52" edge="1">
          <mxGeometry width="160" relative="1" as="geometry">
            <mxPoint x="-395" y="1036" as="sourcePoint" />
            <mxPoint x="-335" y="1049" as="targetPoint" />
            <Array as="points" />
          </mxGeometry>
        </mxCell>
        <mxCell id="DMcOIHDdvPkXq5ejdEWz-2" value="&lt;b&gt;«exception»&lt;br&gt;User Authentication failed&lt;/b&gt;" style="html=1;whiteSpace=wrap;container=0;" parent="1" vertex="1">
          <mxGeometry x="780" y="-848" width="150" height="50" as="geometry" />
        </mxCell>
        <mxCell id="DMcOIHDdvPkXq5ejdEWz-3" value="&lt;b&gt;«exception»&lt;/b&gt;&lt;br&gt;&lt;b&gt;Database fetch failed&lt;/b&gt;" style="html=1;whiteSpace=wrap;container=0;" parent="1" vertex="1">
          <mxGeometry x="370" y="-1141" width="150" height="50" as="geometry" />
        </mxCell>
        <mxCell id="HJ6jIR_0lIMdKX0wm8NF-24" value="" style="endArrow=diamondThin;endFill=0;endSize=24;html=1;rounded=0;" parent="1" source="oweBOw8QxQyaaeUaKl41-35" target="oweBOw8QxQyaaeUaKl41-69" edge="1">
          <mxGeometry width="160" relative="1" as="geometry">
            <mxPoint x="-10" y="200" as="sourcePoint" />
            <mxPoint x="150" y="200" as="targetPoint" />
          </mxGeometry>
        </mxCell>
        <mxCell id="r2bzVPtzK4Y9AJpjgJ-l-3" value="" style="endArrow=diamondThin;endFill=1;endSize=24;html=1;rounded=0;" parent="1" source="oweBOw8QxQyaaeUaKl41-193" target="oweBOw8QxQyaaeUaKl41-185" edge="1">
          <mxGeometry width="160" relative="1" as="geometry">
            <mxPoint x="910" y="-255" as="sourcePoint" />
            <mxPoint x="1070" y="-255" as="targetPoint" />
          </mxGeometry>
        </mxCell>
        <mxCell id="DMcOIHDdvPkXq5ejdEWz-4" value="throws" style="endArrow=open;endSize=12;dashed=1;html=1;rounded=0;" parent="1" source="gNH5sCob12Ak3Dl_MP5L-26" target="DMcOIHDdvPkXq5ejdEWz-2" edge="1">
          <mxGeometry width="160" relative="1" as="geometry">
            <mxPoint x="320" y="-1052.5900000000001" as="sourcePoint" />
            <mxPoint x="480" y="-1052.5900000000001" as="targetPoint" />
          </mxGeometry>
        </mxCell>
        <mxCell id="HJ6jIR_0lIMdKX0wm8NF-26" value="" style="endArrow=diamondThin;endFill=0;endSize=24;html=1;rounded=0;" parent="1" source="oweBOw8QxQyaaeUaKl41-147" target="oweBOw8QxQyaaeUaKl41-153" edge="1">
          <mxGeometry width="160" relative="1" as="geometry">
            <mxPoint x="-120" y="660" as="sourcePoint" />
            <mxPoint x="40" y="660" as="targetPoint" />
          </mxGeometry>
        </mxCell>
        <mxCell id="HJ6jIR_0lIMdKX0wm8NF-28" value="" style="endArrow=diamondThin;endFill=0;endSize=24;html=1;rounded=0;" parent="1" source="oweBOw8QxQyaaeUaKl41-147" target="oweBOw8QxQyaaeUaKl41-132" edge="1">
          <mxGeometry width="160" relative="1" as="geometry">
            <mxPoint x="860" y="372" as="sourcePoint" />
            <mxPoint x="1090" y="343" as="targetPoint" />
          </mxGeometry>
        </mxCell>
        <mxCell id="DMcOIHDdvPkXq5ejdEWz-5" value="throws" style="endArrow=open;endSize=12;dashed=1;html=1;rounded=0;" parent="1" source="oweBOw8QxQyaaeUaKl41-205" target="DMcOIHDdvPkXq5ejdEWz-3" edge="1">
          <mxGeometry width="160" relative="1" as="geometry">
            <mxPoint x="320" y="-934.59" as="sourcePoint" />
            <mxPoint x="395" y="-934" as="targetPoint" />
          </mxGeometry>
        </mxCell>
        <mxCell id="r2bzVPtzK4Y9AJpjgJ-l-5" value="" style="endArrow=diamondThin;endFill=1;endSize=24;html=1;rounded=0;" parent="1" source="oweBOw8QxQyaaeUaKl41-107" target="oweBOw8QxQyaaeUaKl41-100" edge="1">
          <mxGeometry width="160" relative="1" as="geometry">
            <mxPoint x="-180" y="-220" as="sourcePoint" />
            <mxPoint x="-20" y="-220" as="targetPoint" />
          </mxGeometry>
        </mxCell>
        <mxCell id="r2bzVPtzK4Y9AJpjgJ-l-6" value="" style="endArrow=diamondThin;endFill=1;endSize=24;html=1;rounded=0;" parent="1" source="oweBOw8QxQyaaeUaKl41-87" target="oweBOw8QxQyaaeUaKl41-100" edge="1">
          <mxGeometry width="160" relative="1" as="geometry">
            <mxPoint x="-180" y="-220" as="sourcePoint" />
            <mxPoint x="-20" y="-220" as="targetPoint" />
          </mxGeometry>
        </mxCell>
        <mxCell id="r2bzVPtzK4Y9AJpjgJ-l-7" value="" style="endArrow=diamondThin;endFill=1;endSize=24;html=1;rounded=0;" parent="1" source="gNH5sCob12Ak3Dl_MP5L-39" target="oweBOw8QxQyaaeUaKl41-87" edge="1">
          <mxGeometry width="160" relative="1" as="geometry">
            <mxPoint x="-370" y="-110" as="sourcePoint" />
            <mxPoint x="-210" y="-110" as="targetPoint" />
          </mxGeometry>
        </mxCell>
        <mxCell id="HJ6jIR_0lIMdKX0wm8NF-29" value="" style="endArrow=diamondThin;endFill=0;endSize=24;html=1;rounded=0;" parent="1" source="oweBOw8QxQyaaeUaKl41-138" target="oweBOw8QxQyaaeUaKl41-147" edge="1">
          <mxGeometry width="160" relative="1" as="geometry">
            <mxPoint x="30" y="460" as="sourcePoint" />
            <mxPoint x="910" y="740" as="targetPoint" />
          </mxGeometry>
        </mxCell>
        <mxCell id="HJ6jIR_0lIMdKX0wm8NF-31" value="" style="endArrow=diamondThin;endFill=0;endSize=24;html=1;rounded=0;" parent="1" source="oweBOw8QxQyaaeUaKl41-153" target="oweBOw8QxQyaaeUaKl41-138" edge="1">
          <mxGeometry width="160" relative="1" as="geometry">
            <mxPoint x="430" y="230" as="sourcePoint" />
            <mxPoint x="650" y="221" as="targetPoint" />
          </mxGeometry>
        </mxCell>
        <mxCell id="HJ6jIR_0lIMdKX0wm8NF-33" value="" style="endArrow=diamondThin;endFill=0;endSize=24;html=1;rounded=0;" parent="1" source="oweBOw8QxQyaaeUaKl41-35" target="oweBOw8QxQyaaeUaKl41-87" edge="1">
          <mxGeometry width="160" relative="1" as="geometry">
            <mxPoint x="-350" y="-90" as="sourcePoint" />
            <mxPoint x="-170" y="-240" as="targetPoint" />
          </mxGeometry>
        </mxCell>
        <mxCell id="DMcOIHDdvPkXq5ejdEWz-10" value="" style="rounded=0;orthogonalLoop=1;jettySize=auto;html=1;endArrow=none;endFill=0;sketch=0;sourcePerimeterSpacing=0;targetPerimeterSpacing=0;" parent="1" source="oweBOw8QxQyaaeUaKl41-235" target="DMcOIHDdvPkXq5ejdEWz-12" edge="1">
          <mxGeometry relative="1" as="geometry">
            <mxPoint x="-490" y="24" as="sourcePoint" />
          </mxGeometry>
        </mxCell>
        <mxCell id="DMcOIHDdvPkXq5ejdEWz-11" value="" style="rounded=0;orthogonalLoop=1;jettySize=auto;html=1;endArrow=halfCircle;endFill=0;entryX=0.5;entryY=0.5;endSize=6;strokeWidth=1;sketch=0;" parent="1" source="oweBOw8QxQyaaeUaKl41-107" target="DMcOIHDdvPkXq5ejdEWz-12" edge="1">
          <mxGeometry relative="1" as="geometry">
            <mxPoint x="-230" y="-25" as="sourcePoint" />
          </mxGeometry>
        </mxCell>
        <mxCell id="DMcOIHDdvPkXq5ejdEWz-12" value="" style="ellipse;whiteSpace=wrap;html=1;align=center;aspect=fixed;resizable=0;points=[];outlineConnect=0;sketch=0;container=0;" parent="1" vertex="1">
          <mxGeometry x="-795" y="-20" width="10" height="10" as="geometry" />
        </mxCell>
        <mxCell id="HJ6jIR_0lIMdKX0wm8NF-34" value="" style="endArrow=diamondThin;endFill=0;endSize=24;html=1;rounded=0;" parent="1" source="oweBOw8QxQyaaeUaKl41-138" target="oweBOw8QxQyaaeUaKl41-170" edge="1">
          <mxGeometry width="160" relative="1" as="geometry">
            <mxPoint x="640" as="sourcePoint" />
            <mxPoint x="800" as="targetPoint" />
          </mxGeometry>
        </mxCell>
        <mxCell id="DMcOIHDdvPkXq5ejdEWz-13" value="&lt;b&gt;«exception»&lt;br&gt;Map request failed&lt;/b&gt;" style="html=1;whiteSpace=wrap;container=0;" parent="1" vertex="1">
          <mxGeometry x="-1120" y="-140" width="150" height="50" as="geometry" />
        </mxCell>
        <mxCell id="DMcOIHDdvPkXq5ejdEWz-14" value="throws" style="endArrow=open;endSize=12;dashed=1;html=1;rounded=0;entryX=1;entryY=0.5;entryDx=0;entryDy=0;" parent="1" source="oweBOw8QxQyaaeUaKl41-107" target="DMcOIHDdvPkXq5ejdEWz-13" edge="1">
          <mxGeometry width="160" relative="1" as="geometry">
            <mxPoint x="-430" y="-240" as="sourcePoint" />
            <mxPoint x="-270" y="-240" as="targetPoint" />
          </mxGeometry>
        </mxCell>
        <mxCell id="xrMqBIfsIrHvxcXYu7P_-3" value="" style="endArrow=diamondThin;endFill=1;endSize=24;html=1;rounded=0;" parent="1" source="oweBOw8QxQyaaeUaKl41-124" target="oweBOw8QxQyaaeUaKl41-119" edge="1">
          <mxGeometry width="160" relative="1" as="geometry">
            <mxPoint x="440" y="790" as="sourcePoint" />
            <mxPoint x="600" y="790" as="targetPoint" />
          </mxGeometry>
        </mxCell>
        <mxCell id="oweBOw8QxQyaaeUaKl41-7" value="" style="endArrow=diamondThin;endFill=1;endSize=24;html=1;rounded=0;" parent="1" source="oweBOw8QxQyaaeUaKl41-170" target="oweBOw8QxQyaaeUaKl41-185" edge="1">
          <mxGeometry width="160" relative="1" as="geometry">
            <mxPoint x="1101" y="-207" as="sourcePoint" />
            <mxPoint x="1013" y="-272" as="targetPoint" />
          </mxGeometry>
        </mxCell>
        <mxCell id="oweBOw8QxQyaaeUaKl41-8" value="" style="endArrow=diamondThin;endFill=1;endSize=24;html=1;rounded=0;" parent="1" source="oweBOw8QxQyaaeUaKl41-193" target="oweBOw8QxQyaaeUaKl41-162" edge="1">
          <mxGeometry width="160" relative="1" as="geometry">
            <mxPoint x="734" y="-230" as="sourcePoint" />
            <mxPoint x="820" y="-281" as="targetPoint" />
          </mxGeometry>
        </mxCell>
        <mxCell id="oweBOw8QxQyaaeUaKl41-25" value="  ContactInfo" style="swimlane;fontStyle=1;align=center;verticalAlign=top;childLayout=stackLayout;horizontal=1;startSize=26;horizontalStack=0;resizeParent=1;resizeParentMax=0;resizeLast=0;collapsible=1;marginBottom=0;whiteSpace=wrap;html=1;" parent="1" vertex="1">
          <mxGeometry x="-900" y="250" width="160" height="138" as="geometry" />
        </mxCell>
        <mxCell id="oweBOw8QxQyaaeUaKl41-26" value="- email: string" style="text;strokeColor=none;fillColor=none;align=left;verticalAlign=top;spacingLeft=4;spacingRight=4;overflow=hidden;rotatable=0;points=[[0,0.5],[1,0.5]];portConstraint=eastwest;whiteSpace=wrap;html=1;" parent="oweBOw8QxQyaaeUaKl41-25" vertex="1">
          <mxGeometry y="26" width="160" height="26" as="geometry" />
        </mxCell>
        <mxCell id="oweBOw8QxQyaaeUaKl41-32" value="- phone: number" style="text;strokeColor=none;fillColor=none;align=left;verticalAlign=top;spacingLeft=4;spacingRight=4;overflow=hidden;rotatable=0;points=[[0,0.5],[1,0.5]];portConstraint=eastwest;whiteSpace=wrap;html=1;" parent="oweBOw8QxQyaaeUaKl41-25" vertex="1">
          <mxGeometry y="52" width="160" height="26" as="geometry" />
        </mxCell>
        <mxCell id="oweBOw8QxQyaaeUaKl41-31" value="- user: User" style="text;strokeColor=none;fillColor=none;align=left;verticalAlign=top;spacingLeft=4;spacingRight=4;overflow=hidden;rotatable=0;points=[[0,0.5],[1,0.5]];portConstraint=eastwest;whiteSpace=wrap;html=1;" parent="oweBOw8QxQyaaeUaKl41-25" vertex="1">
          <mxGeometry y="78" width="160" height="26" as="geometry" />
        </mxCell>
        <mxCell id="oweBOw8QxQyaaeUaKl41-30" value="- location: string" style="text;strokeColor=none;fillColor=none;align=left;verticalAlign=top;spacingLeft=4;spacingRight=4;overflow=hidden;rotatable=0;points=[[0,0.5],[1,0.5]];portConstraint=eastwest;whiteSpace=wrap;html=1;" parent="oweBOw8QxQyaaeUaKl41-25" vertex="1">
          <mxGeometry y="104" width="160" height="26" as="geometry" />
        </mxCell>
        <mxCell id="oweBOw8QxQyaaeUaKl41-27" value="" style="line;strokeWidth=1;fillColor=none;align=left;verticalAlign=middle;spacingTop=-1;spacingLeft=3;spacingRight=3;rotatable=0;labelPosition=right;points=[];portConstraint=eastwest;strokeColor=inherit;" parent="oweBOw8QxQyaaeUaKl41-25" vertex="1">
          <mxGeometry y="130" width="160" height="8" as="geometry" />
        </mxCell>
        <mxCell id="oweBOw8QxQyaaeUaKl41-35" value="  Shelter" style="swimlane;fontStyle=1;align=center;verticalAlign=top;childLayout=stackLayout;horizontal=1;startSize=26;horizontalStack=0;resizeParent=1;resizeParentMax=0;resizeLast=0;collapsible=1;marginBottom=0;whiteSpace=wrap;html=1;" parent="1" vertex="1">
          <mxGeometry x="-668.5" y="120" width="317" height="398" as="geometry" />
        </mxCell>
        <mxCell id="oweBOw8QxQyaaeUaKl41-36" value="- id: number" style="text;strokeColor=none;fillColor=none;align=left;verticalAlign=top;spacingLeft=4;spacingRight=4;overflow=hidden;rotatable=0;points=[[0,0.5],[1,0.5]];portConstraint=eastwest;whiteSpace=wrap;html=1;" parent="oweBOw8QxQyaaeUaKl41-35" vertex="1">
          <mxGeometry y="26" width="317" height="26" as="geometry" />
        </mxCell>
        <mxCell id="oweBOw8QxQyaaeUaKl41-42" value="- name: string" style="text;strokeColor=none;fillColor=none;align=left;verticalAlign=top;spacingLeft=4;spacingRight=4;overflow=hidden;rotatable=0;points=[[0,0.5],[1,0.5]];portConstraint=eastwest;whiteSpace=wrap;html=1;" parent="oweBOw8QxQyaaeUaKl41-35" vertex="1">
          <mxGeometry y="52" width="317" height="26" as="geometry" />
        </mxCell>
        <mxCell id="oweBOw8QxQyaaeUaKl41-41" value="- associates: string[]" style="text;strokeColor=none;fillColor=none;align=left;verticalAlign=top;spacingLeft=4;spacingRight=4;overflow=hidden;rotatable=0;points=[[0,0.5],[1,0.5]];portConstraint=eastwest;whiteSpace=wrap;html=1;" parent="oweBOw8QxQyaaeUaKl41-35" vertex="1">
          <mxGeometry y="78" width="317" height="26" as="geometry" />
        </mxCell>
        <mxCell id="oweBOw8QxQyaaeUaKl41-40" value="&lt;span style=&quot;color: rgb(0, 0, 0); font-family: Helvetica; font-size: 12px; font-style: normal; font-variant-ligatures: normal; font-variant-caps: normal; font-weight: 400; letter-spacing: normal; orphans: 2; text-align: left; text-indent: 0px; text-transform: none; widows: 2; word-spacing: 0px; -webkit-text-stroke-width: 0px; background-color: rgb(251, 251, 251); text-decoration-thickness: initial; text-decoration-style: initial; text-decoration-color: initial; float: none; display: inline !important;&quot;&gt;- permissionRequests: PermissionRequest[]&lt;/span&gt;" style="text;strokeColor=none;fillColor=none;align=left;verticalAlign=top;spacingLeft=4;spacingRight=4;overflow=hidden;rotatable=0;points=[[0,0.5],[1,0.5]];portConstraint=eastwest;whiteSpace=wrap;html=1;" parent="oweBOw8QxQyaaeUaKl41-35" vertex="1">
          <mxGeometry y="104" width="317" height="26" as="geometry" />
        </mxCell>
        <mxCell id="oweBOw8QxQyaaeUaKl41-39" value="- photoAlbum: PhotoAlbum" style="text;strokeColor=none;fillColor=none;align=left;verticalAlign=top;spacingLeft=4;spacingRight=4;overflow=hidden;rotatable=0;points=[[0,0.5],[1,0.5]];portConstraint=eastwest;whiteSpace=wrap;html=1;" parent="oweBOw8QxQyaaeUaKl41-35" vertex="1">
          <mxGeometry y="130" width="317" height="26" as="geometry" />
        </mxCell>
        <mxCell id="oweBOw8QxQyaaeUaKl41-45" value="- contactInfo: ContactInfo" style="text;strokeColor=none;fillColor=none;align=left;verticalAlign=top;spacingLeft=4;spacingRight=4;overflow=hidden;rotatable=0;points=[[0,0.5],[1,0.5]];portConstraint=eastwest;whiteSpace=wrap;html=1;" parent="oweBOw8QxQyaaeUaKl41-35" vertex="1">
          <mxGeometry y="156" width="317" height="26" as="geometry" />
        </mxCell>
        <mxCell id="oweBOw8QxQyaaeUaKl41-37" value="" style="line;strokeWidth=1;fillColor=none;align=left;verticalAlign=middle;spacingTop=-1;spacingLeft=3;spacingRight=3;rotatable=0;labelPosition=right;points=[];portConstraint=eastwest;strokeColor=inherit;" parent="oweBOw8QxQyaaeUaKl41-35" vertex="1">
          <mxGeometry y="182" width="317" height="8" as="geometry" />
        </mxCell>
        <mxCell id="oweBOw8QxQyaaeUaKl41-38" value="+ removePermission()" style="text;strokeColor=none;fillColor=none;align=left;verticalAlign=top;spacingLeft=4;spacingRight=4;overflow=hidden;rotatable=0;points=[[0,0.5],[1,0.5]];portConstraint=eastwest;whiteSpace=wrap;html=1;" parent="oweBOw8QxQyaaeUaKl41-35" vertex="1">
          <mxGeometry y="190" width="317" height="26" as="geometry" />
        </mxCell>
        <mxCell id="oweBOw8QxQyaaeUaKl41-50" value="+ resolveRequest()" style="text;strokeColor=none;fillColor=none;align=left;verticalAlign=top;spacingLeft=4;spacingRight=4;overflow=hidden;rotatable=0;points=[[0,0.5],[1,0.5]];portConstraint=eastwest;whiteSpace=wrap;html=1;" parent="oweBOw8QxQyaaeUaKl41-35" vertex="1">
          <mxGeometry y="216" width="317" height="26" as="geometry" />
        </mxCell>
        <mxCell id="oweBOw8QxQyaaeUaKl41-49" value="+ modifyAssociate()" style="text;strokeColor=none;fillColor=none;align=left;verticalAlign=top;spacingLeft=4;spacingRight=4;overflow=hidden;rotatable=0;points=[[0,0.5],[1,0.5]];portConstraint=eastwest;whiteSpace=wrap;html=1;" parent="oweBOw8QxQyaaeUaKl41-35" vertex="1">
          <mxGeometry y="242" width="317" height="26" as="geometry" />
        </mxCell>
        <mxCell id="oweBOw8QxQyaaeUaKl41-48" value="+ setName()" style="text;strokeColor=none;fillColor=none;align=left;verticalAlign=top;spacingLeft=4;spacingRight=4;overflow=hidden;rotatable=0;points=[[0,0.5],[1,0.5]];portConstraint=eastwest;whiteSpace=wrap;html=1;" parent="oweBOw8QxQyaaeUaKl41-35" vertex="1">
          <mxGeometry y="268" width="317" height="26" as="geometry" />
        </mxCell>
        <mxCell id="oweBOw8QxQyaaeUaKl41-47" value="+ makeRequest()" style="text;strokeColor=none;fillColor=none;align=left;verticalAlign=top;spacingLeft=4;spacingRight=4;overflow=hidden;rotatable=0;points=[[0,0.5],[1,0.5]];portConstraint=eastwest;whiteSpace=wrap;html=1;" parent="oweBOw8QxQyaaeUaKl41-35" vertex="1">
          <mxGeometry y="294" width="317" height="26" as="geometry" />
        </mxCell>
        <mxCell id="oweBOw8QxQyaaeUaKl41-46" value="+ setContactInfo()" style="text;strokeColor=none;fillColor=none;align=left;verticalAlign=top;spacingLeft=4;spacingRight=4;overflow=hidden;rotatable=0;points=[[0,0.5],[1,0.5]];portConstraint=eastwest;whiteSpace=wrap;html=1;" parent="oweBOw8QxQyaaeUaKl41-35" vertex="1">
          <mxGeometry y="320" width="317" height="26" as="geometry" />
        </mxCell>
        <mxCell id="oweBOw8QxQyaaeUaKl41-51" value="&lt;span style=&quot;color: rgb(0, 0, 0); font-family: Helvetica; font-size: 12px; font-style: normal; font-variant-ligatures: normal; font-variant-caps: normal; font-weight: 400; letter-spacing: normal; orphans: 2; text-align: left; text-indent: 0px; text-transform: none; widows: 2; word-spacing: 0px; -webkit-text-stroke-width: 0px; background-color: rgb(251, 251, 251); text-decoration-thickness: initial; text-decoration-style: initial; text-decoration-color: initial; float: none; display: inline !important;&quot;&gt;+ getAdList()&lt;/span&gt;" style="text;strokeColor=none;fillColor=none;align=left;verticalAlign=top;spacingLeft=4;spacingRight=4;overflow=hidden;rotatable=0;points=[[0,0.5],[1,0.5]];portConstraint=eastwest;whiteSpace=wrap;html=1;" parent="oweBOw8QxQyaaeUaKl41-35" vertex="1">
          <mxGeometry y="346" width="317" height="26" as="geometry" />
        </mxCell>
        <mxCell id="FLCqSbJcpi1I1KcVh4GQ-3" value="+ showAssociatesPermissions()" style="text;strokeColor=none;fillColor=none;align=left;verticalAlign=top;spacingLeft=4;spacingRight=4;overflow=hidden;rotatable=0;points=[[0,0.5],[1,0.5]];portConstraint=eastwest;whiteSpace=wrap;html=1;" parent="oweBOw8QxQyaaeUaKl41-35" vertex="1">
          <mxGeometry y="372" width="317" height="26" as="geometry" />
        </mxCell>
        <mxCell id="oweBOw8QxQyaaeUaKl41-52" value="  PhotoAlbum" style="swimlane;fontStyle=1;align=center;verticalAlign=top;childLayout=stackLayout;horizontal=1;startSize=26;horizontalStack=0;resizeParent=1;resizeParentMax=0;resizeLast=0;collapsible=1;marginBottom=0;whiteSpace=wrap;html=1;" parent="1" vertex="1">
          <mxGeometry x="-590" y="680" width="160" height="138" as="geometry" />
        </mxCell>
        <mxCell id="gNH5sCob12Ak3Dl_MP5L-44" value="- id: number" style="text;strokeColor=none;fillColor=none;align=left;verticalAlign=top;spacingLeft=4;spacingRight=4;overflow=hidden;rotatable=0;points=[[0,0.5],[1,0.5]];portConstraint=eastwest;whiteSpace=wrap;html=1;" parent="oweBOw8QxQyaaeUaKl41-52" vertex="1">
          <mxGeometry y="26" width="160" height="26" as="geometry" />
        </mxCell>
        <mxCell id="oweBOw8QxQyaaeUaKl41-53" value="- photos: Photo[]" style="text;strokeColor=none;fillColor=none;align=left;verticalAlign=top;spacingLeft=4;spacingRight=4;overflow=hidden;rotatable=0;points=[[0,0.5],[1,0.5]];portConstraint=eastwest;whiteSpace=wrap;html=1;" parent="oweBOw8QxQyaaeUaKl41-52" vertex="1">
          <mxGeometry y="52" width="160" height="26" as="geometry" />
        </mxCell>
        <mxCell id="oweBOw8QxQyaaeUaKl41-54" value="" style="line;strokeWidth=1;fillColor=none;align=left;verticalAlign=middle;spacingTop=-1;spacingLeft=3;spacingRight=3;rotatable=0;labelPosition=right;points=[];portConstraint=eastwest;strokeColor=inherit;" parent="oweBOw8QxQyaaeUaKl41-52" vertex="1">
          <mxGeometry y="78" width="160" height="8" as="geometry" />
        </mxCell>
        <mxCell id="oweBOw8QxQyaaeUaKl41-55" value="+ add()" style="text;strokeColor=none;fillColor=none;align=left;verticalAlign=top;spacingLeft=4;spacingRight=4;overflow=hidden;rotatable=0;points=[[0,0.5],[1,0.5]];portConstraint=eastwest;whiteSpace=wrap;html=1;" parent="oweBOw8QxQyaaeUaKl41-52" vertex="1">
          <mxGeometry y="86" width="160" height="26" as="geometry" />
        </mxCell>
        <mxCell id="oweBOw8QxQyaaeUaKl41-58" value="+ delete()" style="text;strokeColor=none;fillColor=none;align=left;verticalAlign=top;spacingLeft=4;spacingRight=4;overflow=hidden;rotatable=0;points=[[0,0.5],[1,0.5]];portConstraint=eastwest;whiteSpace=wrap;html=1;" parent="oweBOw8QxQyaaeUaKl41-52" vertex="1">
          <mxGeometry y="112" width="160" height="26" as="geometry" />
        </mxCell>
        <mxCell id="oweBOw8QxQyaaeUaKl41-59" value="" style="endArrow=diamondThin;endFill=1;endSize=24;html=1;rounded=0;" parent="1" source="oweBOw8QxQyaaeUaKl41-52" target="oweBOw8QxQyaaeUaKl41-35" edge="1">
          <mxGeometry width="160" relative="1" as="geometry">
            <mxPoint x="-290" y="810" as="sourcePoint" />
            <mxPoint x="-130" y="810" as="targetPoint" />
          </mxGeometry>
        </mxCell>
        <mxCell id="oweBOw8QxQyaaeUaKl41-61" value="" style="endArrow=diamondThin;endFill=1;endSize=24;html=1;rounded=0;" parent="1" source="oweBOw8QxQyaaeUaKl41-25" target="oweBOw8QxQyaaeUaKl41-35" edge="1">
          <mxGeometry width="160" relative="1" as="geometry">
            <mxPoint x="-360" y="650" as="sourcePoint" />
            <mxPoint x="-200" y="650" as="targetPoint" />
          </mxGeometry>
        </mxCell>
        <mxCell id="oweBOw8QxQyaaeUaKl41-62" value="" style="endArrow=diamondThin;endFill=1;endSize=24;html=1;rounded=0;exitX=1;exitY=0.5;exitDx=0;exitDy=0;" parent="1" source="oweBOw8QxQyaaeUaKl41-55" target="oweBOw8QxQyaaeUaKl41-69" edge="1">
          <mxGeometry width="160" relative="1" as="geometry">
            <mxPoint x="-290" y="660" as="sourcePoint" />
            <mxPoint x="-130" y="660" as="targetPoint" />
          </mxGeometry>
        </mxCell>
        <mxCell id="oweBOw8QxQyaaeUaKl41-63" value="  Photo" style="swimlane;fontStyle=1;align=center;verticalAlign=top;childLayout=stackLayout;horizontal=1;startSize=26;horizontalStack=0;resizeParent=1;resizeParentMax=0;resizeLast=0;collapsible=1;marginBottom=0;whiteSpace=wrap;html=1;" parent="1" vertex="1">
          <mxGeometry x="-590" y="890" width="160" height="138" as="geometry" />
        </mxCell>
        <mxCell id="oweBOw8QxQyaaeUaKl41-64" value="- img: image" style="text;strokeColor=none;fillColor=none;align=left;verticalAlign=top;spacingLeft=4;spacingRight=4;overflow=hidden;rotatable=0;points=[[0,0.5],[1,0.5]];portConstraint=eastwest;whiteSpace=wrap;html=1;" parent="oweBOw8QxQyaaeUaKl41-63" vertex="1">
          <mxGeometry y="26" width="160" height="26" as="geometry" />
        </mxCell>
        <mxCell id="oweBOw8QxQyaaeUaKl41-67" value="&lt;span style=&quot;color: rgb(0, 0, 0); font-family: Helvetica; font-size: 12px; font-style: normal; font-variant-ligatures: normal; font-variant-caps: normal; font-weight: 400; letter-spacing: normal; orphans: 2; text-align: left; text-indent: 0px; text-transform: none; widows: 2; word-spacing: 0px; -webkit-text-stroke-width: 0px; background-color: rgb(251, 251, 251); text-decoration-thickness: initial; text-decoration-style: initial; text-decoration-color: initial; float: none; display: inline !important;&quot;&gt;- description: string&lt;/span&gt;" style="text;strokeColor=none;fillColor=none;align=left;verticalAlign=top;spacingLeft=4;spacingRight=4;overflow=hidden;rotatable=0;points=[[0,0.5],[1,0.5]];portConstraint=eastwest;whiteSpace=wrap;html=1;" parent="oweBOw8QxQyaaeUaKl41-63" vertex="1">
          <mxGeometry y="52" width="160" height="26" as="geometry" />
        </mxCell>
        <mxCell id="oweBOw8QxQyaaeUaKl41-65" value="" style="line;strokeWidth=1;fillColor=none;align=left;verticalAlign=middle;spacingTop=-1;spacingLeft=3;spacingRight=3;rotatable=0;labelPosition=right;points=[];portConstraint=eastwest;strokeColor=inherit;" parent="oweBOw8QxQyaaeUaKl41-63" vertex="1">
          <mxGeometry y="78" width="160" height="8" as="geometry" />
        </mxCell>
        <mxCell id="oweBOw8QxQyaaeUaKl41-66" value="+ setImg()" style="text;strokeColor=none;fillColor=none;align=left;verticalAlign=top;spacingLeft=4;spacingRight=4;overflow=hidden;rotatable=0;points=[[0,0.5],[1,0.5]];portConstraint=eastwest;whiteSpace=wrap;html=1;" parent="oweBOw8QxQyaaeUaKl41-63" vertex="1">
          <mxGeometry y="86" width="160" height="26" as="geometry" />
        </mxCell>
        <mxCell id="oweBOw8QxQyaaeUaKl41-68" value="+ setDescription()" style="text;strokeColor=none;fillColor=none;align=left;verticalAlign=top;spacingLeft=4;spacingRight=4;overflow=hidden;rotatable=0;points=[[0,0.5],[1,0.5]];portConstraint=eastwest;whiteSpace=wrap;html=1;" parent="oweBOw8QxQyaaeUaKl41-63" vertex="1">
          <mxGeometry y="112" width="160" height="26" as="geometry" />
        </mxCell>
        <mxCell id="oweBOw8QxQyaaeUaKl41-69" value="  Ad" style="swimlane;fontStyle=1;align=center;verticalAlign=top;childLayout=stackLayout;horizontal=1;startSize=26;horizontalStack=0;resizeParent=1;resizeParentMax=0;resizeLast=0;collapsible=1;marginBottom=0;whiteSpace=wrap;html=1;" parent="1" vertex="1">
          <mxGeometry x="45" y="652.88" width="160" height="320" as="geometry">
            <mxRectangle x="45" y="652.88" width="60" height="30" as="alternateBounds" />
          </mxGeometry>
        </mxCell>
        <mxCell id="oweBOw8QxQyaaeUaKl41-70" value="&lt;span style=&quot;color: rgb(0, 0, 0); font-family: Helvetica; font-size: 12px; font-style: normal; font-variant-ligatures: normal; font-variant-caps: normal; font-weight: 400; letter-spacing: normal; orphans: 2; text-align: left; text-indent: 0px; text-transform: none; widows: 2; word-spacing: 0px; -webkit-text-stroke-width: 0px; background-color: rgb(251, 251, 251); text-decoration-thickness: initial; text-decoration-style: initial; text-decoration-color: initial; float: none; display: inline !important;&quot;&gt;- adID: number&lt;/span&gt;" style="text;strokeColor=none;fillColor=none;align=left;verticalAlign=top;spacingLeft=4;spacingRight=4;overflow=hidden;rotatable=0;points=[[0,0.5],[1,0.5]];portConstraint=eastwest;whiteSpace=wrap;html=1;" parent="oweBOw8QxQyaaeUaKl41-69" vertex="1">
          <mxGeometry y="26" width="160" height="26" as="geometry" />
        </mxCell>
        <mxCell id="oweBOw8QxQyaaeUaKl41-76" value="- pet: Pet" style="text;strokeColor=none;fillColor=none;align=left;verticalAlign=top;spacingLeft=4;spacingRight=4;overflow=hidden;rotatable=0;points=[[0,0.5],[1,0.5]];portConstraint=eastwest;whiteSpace=wrap;html=1;" parent="oweBOw8QxQyaaeUaKl41-69" vertex="1">
          <mxGeometry y="52" width="160" height="26" as="geometry" />
        </mxCell>
        <mxCell id="oweBOw8QxQyaaeUaKl41-75" value="- active: bool" style="text;strokeColor=none;fillColor=none;align=left;verticalAlign=top;spacingLeft=4;spacingRight=4;overflow=hidden;rotatable=0;points=[[0,0.5],[1,0.5]];portConstraint=eastwest;whiteSpace=wrap;html=1;" parent="oweBOw8QxQyaaeUaKl41-69" vertex="1">
          <mxGeometry y="78" width="160" height="26" as="geometry" />
        </mxCell>
        <mxCell id="oweBOw8QxQyaaeUaKl41-74" value="- shelter: Shelter" style="text;strokeColor=none;fillColor=none;align=left;verticalAlign=top;spacingLeft=4;spacingRight=4;overflow=hidden;rotatable=0;points=[[0,0.5],[1,0.5]];portConstraint=eastwest;whiteSpace=wrap;html=1;" parent="oweBOw8QxQyaaeUaKl41-69" vertex="1">
          <mxGeometry y="104" width="160" height="26" as="geometry" />
        </mxCell>
        <mxCell id="oweBOw8QxQyaaeUaKl41-73" value="- photoAlbum: PhotoAlbum" style="text;strokeColor=none;fillColor=none;align=left;verticalAlign=top;spacingLeft=4;spacingRight=4;overflow=hidden;rotatable=0;points=[[0,0.5],[1,0.5]];portConstraint=eastwest;whiteSpace=wrap;html=1;" parent="oweBOw8QxQyaaeUaKl41-69" vertex="1">
          <mxGeometry y="130" width="160" height="26" as="geometry" />
        </mxCell>
        <mxCell id="oweBOw8QxQyaaeUaKl41-71" value="" style="line;strokeWidth=1;fillColor=none;align=left;verticalAlign=middle;spacingTop=-1;spacingLeft=3;spacingRight=3;rotatable=0;labelPosition=right;points=[];portConstraint=eastwest;strokeColor=inherit;" parent="oweBOw8QxQyaaeUaKl41-69" vertex="1">
          <mxGeometry y="156" width="160" height="8" as="geometry" />
        </mxCell>
        <mxCell id="oweBOw8QxQyaaeUaKl41-72" value="+ setPet()" style="text;strokeColor=none;fillColor=none;align=left;verticalAlign=top;spacingLeft=4;spacingRight=4;overflow=hidden;rotatable=0;points=[[0,0.5],[1,0.5]];portConstraint=eastwest;whiteSpace=wrap;html=1;" parent="oweBOw8QxQyaaeUaKl41-69" vertex="1">
          <mxGeometry y="164" width="160" height="26" as="geometry" />
        </mxCell>
        <mxCell id="oweBOw8QxQyaaeUaKl41-80" value="+ setActive()" style="text;strokeColor=none;fillColor=none;align=left;verticalAlign=top;spacingLeft=4;spacingRight=4;overflow=hidden;rotatable=0;points=[[0,0.5],[1,0.5]];portConstraint=eastwest;whiteSpace=wrap;html=1;" parent="oweBOw8QxQyaaeUaKl41-69" vertex="1">
          <mxGeometry y="190" width="160" height="26" as="geometry" />
        </mxCell>
        <mxCell id="oweBOw8QxQyaaeUaKl41-79" value="+ setShelter()" style="text;strokeColor=none;fillColor=none;align=left;verticalAlign=top;spacingLeft=4;spacingRight=4;overflow=hidden;rotatable=0;points=[[0,0.5],[1,0.5]];portConstraint=eastwest;whiteSpace=wrap;html=1;" parent="oweBOw8QxQyaaeUaKl41-69" vertex="1">
          <mxGeometry y="216" width="160" height="26" as="geometry" />
        </mxCell>
        <mxCell id="oweBOw8QxQyaaeUaKl41-78" value="+ getContact()" style="text;strokeColor=none;fillColor=none;align=left;verticalAlign=top;spacingLeft=4;spacingRight=4;overflow=hidden;rotatable=0;points=[[0,0.5],[1,0.5]];portConstraint=eastwest;whiteSpace=wrap;html=1;" parent="oweBOw8QxQyaaeUaKl41-69" vertex="1">
          <mxGeometry y="242" width="160" height="26" as="geometry" />
        </mxCell>
        <mxCell id="oweBOw8QxQyaaeUaKl41-77" value="+ share()" style="text;strokeColor=none;fillColor=none;align=left;verticalAlign=top;spacingLeft=4;spacingRight=4;overflow=hidden;rotatable=0;points=[[0,0.5],[1,0.5]];portConstraint=eastwest;whiteSpace=wrap;html=1;" parent="oweBOw8QxQyaaeUaKl41-69" vertex="1">
          <mxGeometry y="268" width="160" height="26" as="geometry" />
        </mxCell>
        <mxCell id="3W3_1-_KSL4Sj8vSvyoJ-2" value="+ render()" style="text;strokeColor=none;fillColor=none;align=left;verticalAlign=top;spacingLeft=4;spacingRight=4;overflow=hidden;rotatable=0;points=[[0,0.5],[1,0.5]];portConstraint=eastwest;whiteSpace=wrap;html=1;" parent="oweBOw8QxQyaaeUaKl41-69" vertex="1">
          <mxGeometry y="294" width="160" height="26" as="geometry" />
        </mxCell>
        <mxCell id="oweBOw8QxQyaaeUaKl41-87" value="  SheltersList" style="swimlane;fontStyle=1;align=center;verticalAlign=top;childLayout=stackLayout;horizontal=1;startSize=26;horizontalStack=0;resizeParent=1;resizeParentMax=0;resizeLast=0;collapsible=1;marginBottom=0;whiteSpace=wrap;html=1;strokeWidth=1;" parent="1" vertex="1">
          <mxGeometry x="-630" y="-170" width="240" height="164" as="geometry" />
        </mxCell>
        <mxCell id="oweBOw8QxQyaaeUaKl41-88" value="- shelters: Shelter[]" style="text;strokeColor=none;fillColor=none;align=left;verticalAlign=top;spacingLeft=4;spacingRight=4;overflow=hidden;rotatable=0;points=[[0,0.5],[1,0.5]];portConstraint=eastwest;whiteSpace=wrap;html=1;" parent="oweBOw8QxQyaaeUaKl41-87" vertex="1">
          <mxGeometry y="26" width="240" height="26" as="geometry" />
        </mxCell>
        <mxCell id="oweBOw8QxQyaaeUaKl41-92" value="- sheltersFilters: SheltersListFilters" style="text;strokeColor=none;fillColor=none;align=left;verticalAlign=top;spacingLeft=4;spacingRight=4;overflow=hidden;rotatable=0;points=[[0,0.5],[1,0.5]];portConstraint=eastwest;whiteSpace=wrap;html=1;" parent="oweBOw8QxQyaaeUaKl41-87" vertex="1">
          <mxGeometry y="52" width="240" height="26" as="geometry" />
        </mxCell>
        <mxCell id="oweBOw8QxQyaaeUaKl41-89" value="" style="line;strokeWidth=1;fillColor=none;align=left;verticalAlign=middle;spacingTop=-1;spacingLeft=3;spacingRight=3;rotatable=0;labelPosition=right;points=[];portConstraint=eastwest;strokeColor=inherit;" parent="oweBOw8QxQyaaeUaKl41-87" vertex="1">
          <mxGeometry y="78" width="240" height="8" as="geometry" />
        </mxCell>
        <mxCell id="oweBOw8QxQyaaeUaKl41-90" value="- getShelters(Database)" style="text;strokeColor=none;fillColor=none;align=left;verticalAlign=top;spacingLeft=4;spacingRight=4;overflow=hidden;rotatable=0;points=[[0,0.5],[1,0.5]];portConstraint=eastwest;whiteSpace=wrap;html=1;" parent="oweBOw8QxQyaaeUaKl41-87" vertex="1">
          <mxGeometry y="86" width="240" height="26" as="geometry" />
        </mxCell>
        <mxCell id="oweBOw8QxQyaaeUaKl41-94" value="- goToShelter()" style="text;strokeColor=none;fillColor=none;align=left;verticalAlign=top;spacingLeft=4;spacingRight=4;overflow=hidden;rotatable=0;points=[[0,0.5],[1,0.5]];portConstraint=eastwest;whiteSpace=wrap;html=1;" parent="oweBOw8QxQyaaeUaKl41-87" vertex="1">
          <mxGeometry y="112" width="240" height="26" as="geometry" />
        </mxCell>
        <mxCell id="oweBOw8QxQyaaeUaKl41-93" value="- scroll()" style="text;strokeColor=none;fillColor=none;align=left;verticalAlign=top;spacingLeft=4;spacingRight=4;overflow=hidden;rotatable=0;points=[[0,0.5],[1,0.5]];portConstraint=eastwest;whiteSpace=wrap;html=1;" parent="oweBOw8QxQyaaeUaKl41-87" vertex="1">
          <mxGeometry y="138" width="240" height="26" as="geometry" />
        </mxCell>
        <mxCell id="oweBOw8QxQyaaeUaKl41-100" value="  SheltersScreen" style="swimlane;fontStyle=1;align=center;verticalAlign=top;childLayout=stackLayout;horizontal=1;startSize=26;horizontalStack=0;resizeParent=1;resizeParentMax=0;resizeLast=0;collapsible=1;marginBottom=0;whiteSpace=wrap;html=1;" parent="1" vertex="1">
          <mxGeometry x="-670" y="-412" width="160" height="112" as="geometry" />
        </mxCell>
        <mxCell id="oweBOw8QxQyaaeUaKl41-101" value="- sheltersList: SheltersList" style="text;strokeColor=none;fillColor=none;align=left;verticalAlign=top;spacingLeft=4;spacingRight=4;overflow=hidden;rotatable=0;points=[[0,0.5],[1,0.5]];portConstraint=eastwest;whiteSpace=wrap;html=1;" parent="oweBOw8QxQyaaeUaKl41-100" vertex="1">
          <mxGeometry y="26" width="160" height="26" as="geometry" />
        </mxCell>
        <mxCell id="oweBOw8QxQyaaeUaKl41-106" value="&lt;span style=&quot;color: rgb(0, 0, 0); font-family: Helvetica; font-size: 12px; font-style: normal; font-variant-ligatures: normal; font-variant-caps: normal; font-weight: 400; letter-spacing: normal; orphans: 2; text-align: left; text-indent: 0px; text-transform: none; widows: 2; word-spacing: 0px; -webkit-text-stroke-width: 0px; background-color: rgb(251, 251, 251); text-decoration-thickness: initial; text-decoration-style: initial; text-decoration-color: initial; float: none; display: inline !important;&quot;&gt;- sheltersMap: SheltersMap&lt;/span&gt;" style="text;strokeColor=none;fillColor=none;align=left;verticalAlign=top;spacingLeft=4;spacingRight=4;overflow=hidden;rotatable=0;points=[[0,0.5],[1,0.5]];portConstraint=eastwest;whiteSpace=wrap;html=1;" parent="oweBOw8QxQyaaeUaKl41-100" vertex="1">
          <mxGeometry y="52" width="160" height="26" as="geometry" />
        </mxCell>
        <mxCell id="oweBOw8QxQyaaeUaKl41-102" value="" style="line;strokeWidth=1;fillColor=none;align=left;verticalAlign=middle;spacingTop=-1;spacingLeft=3;spacingRight=3;rotatable=0;labelPosition=right;points=[];portConstraint=eastwest;strokeColor=inherit;" parent="oweBOw8QxQyaaeUaKl41-100" vertex="1">
          <mxGeometry y="78" width="160" height="8" as="geometry" />
        </mxCell>
        <mxCell id="gNH5sCob12Ak3Dl_MP5L-20" value="+ render()" style="text;strokeColor=none;fillColor=none;align=left;verticalAlign=top;spacingLeft=4;spacingRight=4;overflow=hidden;rotatable=0;points=[[0,0.5],[1,0.5]];portConstraint=eastwest;whiteSpace=wrap;html=1;" parent="oweBOw8QxQyaaeUaKl41-100" vertex="1">
          <mxGeometry y="86" width="160" height="26" as="geometry" />
        </mxCell>
        <mxCell id="oweBOw8QxQyaaeUaKl41-107" value="  SheltersMap" style="swimlane;fontStyle=1;align=center;verticalAlign=top;childLayout=stackLayout;horizontal=1;startSize=26;horizontalStack=0;resizeParent=1;resizeParentMax=0;resizeLast=0;collapsible=1;marginBottom=0;whiteSpace=wrap;html=1;" parent="1" vertex="1">
          <mxGeometry x="-870" y="-158" width="160" height="86" as="geometry" />
        </mxCell>
        <mxCell id="oweBOw8QxQyaaeUaKl41-108" value="&lt;span style=&quot;color: rgb(0, 0, 0); font-family: Helvetica; font-size: 12px; font-style: normal; font-variant-ligatures: normal; font-variant-caps: normal; font-weight: 400; letter-spacing: normal; orphans: 2; text-align: left; text-indent: 0px; text-transform: none; widows: 2; word-spacing: 0px; -webkit-text-stroke-width: 0px; background-color: rgb(251, 251, 251); text-decoration-thickness: initial; text-decoration-style: initial; text-decoration-color: initial; float: none; display: inline !important;&quot;&gt;- map : Map&lt;/span&gt;" style="text;strokeColor=none;fillColor=none;align=left;verticalAlign=top;spacingLeft=4;spacingRight=4;overflow=hidden;rotatable=0;points=[[0,0.5],[1,0.5]];portConstraint=eastwest;whiteSpace=wrap;html=1;" parent="oweBOw8QxQyaaeUaKl41-107" vertex="1">
          <mxGeometry y="26" width="160" height="26" as="geometry" />
        </mxCell>
        <mxCell id="oweBOw8QxQyaaeUaKl41-109" value="" style="line;strokeWidth=1;fillColor=none;align=left;verticalAlign=middle;spacingTop=-1;spacingLeft=3;spacingRight=3;rotatable=0;labelPosition=right;points=[];portConstraint=eastwest;strokeColor=inherit;" parent="oweBOw8QxQyaaeUaKl41-107" vertex="1">
          <mxGeometry y="52" width="160" height="8" as="geometry" />
        </mxCell>
        <mxCell id="oweBOw8QxQyaaeUaKl41-110" value="- goToShelter()" style="text;strokeColor=none;fillColor=none;align=left;verticalAlign=top;spacingLeft=4;spacingRight=4;overflow=hidden;rotatable=0;points=[[0,0.5],[1,0.5]];portConstraint=eastwest;whiteSpace=wrap;html=1;" parent="oweBOw8QxQyaaeUaKl41-107" vertex="1">
          <mxGeometry y="60" width="160" height="26" as="geometry" />
        </mxCell>
        <mxCell id="oweBOw8QxQyaaeUaKl41-113" value="  ShelterPage" style="swimlane;fontStyle=1;align=center;verticalAlign=top;childLayout=stackLayout;horizontal=1;startSize=26;horizontalStack=0;resizeParent=1;resizeParentMax=0;resizeLast=0;collapsible=1;marginBottom=0;whiteSpace=wrap;html=1;" parent="1" vertex="1">
          <mxGeometry x="-60" y="156" width="160" height="190" as="geometry" />
        </mxCell>
        <mxCell id="oweBOw8QxQyaaeUaKl41-114" value="&lt;span style=&quot;color: rgb(0, 0, 0); font-family: Helvetica; font-size: 12px; font-style: normal; font-variant-ligatures: normal; font-variant-caps: normal; font-weight: 400; letter-spacing: normal; orphans: 2; text-align: left; text-indent: 0px; text-transform: none; widows: 2; word-spacing: 0px; -webkit-text-stroke-width: 0px; background-color: rgb(251, 251, 251); text-decoration-thickness: initial; text-decoration-style: initial; text-decoration-color: initial; float: none; display: inline !important;&quot;&gt;- shelter: Shelter&lt;/span&gt;" style="text;strokeColor=none;fillColor=none;align=left;verticalAlign=top;spacingLeft=4;spacingRight=4;overflow=hidden;rotatable=0;points=[[0,0.5],[1,0.5]];portConstraint=eastwest;whiteSpace=wrap;html=1;" parent="oweBOw8QxQyaaeUaKl41-113" vertex="1">
          <mxGeometry y="26" width="160" height="26" as="geometry" />
        </mxCell>
        <mxCell id="oweBOw8QxQyaaeUaKl41-115" value="" style="line;strokeWidth=1;fillColor=none;align=left;verticalAlign=middle;spacingTop=-1;spacingLeft=3;spacingRight=3;rotatable=0;labelPosition=right;points=[];portConstraint=eastwest;strokeColor=inherit;" parent="oweBOw8QxQyaaeUaKl41-113" vertex="1">
          <mxGeometry y="52" width="160" height="8" as="geometry" />
        </mxCell>
        <mxCell id="oweBOw8QxQyaaeUaKl41-116" value="&lt;span style=&quot;color: rgb(0, 0, 0); font-family: Helvetica; font-size: 12px; font-style: normal; font-variant-ligatures: normal; font-variant-caps: normal; font-weight: 400; letter-spacing: normal; orphans: 2; text-align: left; text-indent: 0px; text-transform: none; widows: 2; word-spacing: 0px; -webkit-text-stroke-width: 0px; background-color: rgb(251, 251, 251); text-decoration-thickness: initial; text-decoration-style: initial; text-decoration-color: initial; float: none; display: inline !important;&quot;&gt;+ goToShelter()&lt;/span&gt;" style="text;strokeColor=none;fillColor=none;align=left;verticalAlign=top;spacingLeft=4;spacingRight=4;overflow=hidden;rotatable=0;points=[[0,0.5],[1,0.5]];portConstraint=eastwest;whiteSpace=wrap;html=1;" parent="oweBOw8QxQyaaeUaKl41-113" vertex="1">
          <mxGeometry y="60" width="160" height="26" as="geometry" />
        </mxCell>
        <mxCell id="oweBOw8QxQyaaeUaKl41-118" value="&lt;span style=&quot;color: rgb(0, 0, 0); font-family: Helvetica; font-size: 12px; font-style: normal; font-variant-ligatures: normal; font-variant-caps: normal; font-weight: 400; letter-spacing: normal; orphans: 2; text-align: left; text-indent: 0px; text-transform: none; widows: 2; word-spacing: 0px; -webkit-text-stroke-width: 0px; background-color: rgb(251, 251, 251); text-decoration-thickness: initial; text-decoration-style: initial; text-decoration-color: initial; float: none; display: inline !important;&quot;&gt;+ exitShelterPage()&lt;/span&gt;" style="text;strokeColor=none;fillColor=none;align=left;verticalAlign=top;spacingLeft=4;spacingRight=4;overflow=hidden;rotatable=0;points=[[0,0.5],[1,0.5]];portConstraint=eastwest;whiteSpace=wrap;html=1;" parent="oweBOw8QxQyaaeUaKl41-113" vertex="1">
          <mxGeometry y="86" width="160" height="26" as="geometry" />
        </mxCell>
        <mxCell id="5gKCnKmhoy8k_ZOHsK3D-1" value="+ findAdd()" style="text;strokeColor=none;fillColor=none;align=left;verticalAlign=top;spacingLeft=4;spacingRight=4;overflow=hidden;rotatable=0;points=[[0,0.5],[1,0.5]];portConstraint=eastwest;whiteSpace=wrap;html=1;" parent="oweBOw8QxQyaaeUaKl41-113" vertex="1">
          <mxGeometry y="112" width="160" height="26" as="geometry" />
        </mxCell>
        <mxCell id="DqO0NlKPCmwBuRBFjKLU-3" value="+ editShelter()" style="text;strokeColor=none;fillColor=none;align=left;verticalAlign=top;spacingLeft=4;spacingRight=4;overflow=hidden;rotatable=0;points=[[0,0.5],[1,0.5]];portConstraint=eastwest;whiteSpace=wrap;html=1;" parent="oweBOw8QxQyaaeUaKl41-113" vertex="1">
          <mxGeometry y="138" width="160" height="26" as="geometry" />
        </mxCell>
        <mxCell id="8f0plADx3UuthsFKP4v7-1" value="+ getContactInfo()" style="text;strokeColor=none;fillColor=none;align=left;verticalAlign=top;spacingLeft=4;spacingRight=4;overflow=hidden;rotatable=0;points=[[0,0.5],[1,0.5]];portConstraint=eastwest;whiteSpace=wrap;html=1;" parent="oweBOw8QxQyaaeUaKl41-113" vertex="1">
          <mxGeometry y="164" width="160" height="26" as="geometry" />
        </mxCell>
        <mxCell id="oweBOw8QxQyaaeUaKl41-119" value="  Pet" style="swimlane;fontStyle=1;align=center;verticalAlign=top;childLayout=stackLayout;horizontal=1;startSize=26;horizontalStack=0;resizeParent=1;resizeParentMax=0;resizeLast=0;collapsible=1;marginBottom=0;whiteSpace=wrap;html=1;" parent="1" vertex="1">
          <mxGeometry x="1310" y="769.88" width="300" height="86" as="geometry" />
        </mxCell>
        <mxCell id="oweBOw8QxQyaaeUaKl41-120" value="&lt;span style=&quot;color: rgb(0, 0, 0); font-family: Helvetica; font-size: 12px; font-style: normal; font-variant-ligatures: normal; font-variant-caps: normal; font-weight: 400; letter-spacing: normal; orphans: 2; text-align: left; text-indent: 0px; text-transform: none; widows: 2; word-spacing: 0px; -webkit-text-stroke-width: 0px; background-color: rgb(251, 251, 251); text-decoration-thickness: initial; text-decoration-style: initial; text-decoration-color: initial; float: none; display: inline !important;&quot;&gt;+ name: string&lt;/span&gt;" style="text;strokeColor=none;fillColor=none;align=left;verticalAlign=top;spacingLeft=4;spacingRight=4;overflow=hidden;rotatable=0;points=[[0,0.5],[1,0.5]];portConstraint=eastwest;whiteSpace=wrap;html=1;" parent="oweBOw8QxQyaaeUaKl41-119" vertex="1">
          <mxGeometry y="26" width="300" height="26" as="geometry" />
        </mxCell>
        <mxCell id="oweBOw8QxQyaaeUaKl41-123" value="&lt;span style=&quot;color: rgb(0, 0, 0); font-family: Helvetica; font-size: 12px; font-style: normal; font-variant-ligatures: normal; font-variant-caps: normal; font-weight: 400; letter-spacing: normal; orphans: 2; text-align: left; text-indent: 0px; text-transform: none; widows: 2; word-spacing: 0px; -webkit-text-stroke-width: 0px; background-color: rgb(251, 251, 251); text-decoration-thickness: initial; text-decoration-style: initial; text-decoration-color: initial; float: none; display: inline !important;&quot;&gt;+ petCharacteristics: PetCharacteristics&lt;/span&gt;" style="text;strokeColor=none;fillColor=none;align=left;verticalAlign=top;spacingLeft=4;spacingRight=4;overflow=hidden;rotatable=0;points=[[0,0.5],[1,0.5]];portConstraint=eastwest;whiteSpace=wrap;html=1;" parent="oweBOw8QxQyaaeUaKl41-119" vertex="1">
          <mxGeometry y="52" width="300" height="26" as="geometry" />
        </mxCell>
        <mxCell id="oweBOw8QxQyaaeUaKl41-121" value="" style="line;strokeWidth=1;fillColor=none;align=left;verticalAlign=middle;spacingTop=-1;spacingLeft=3;spacingRight=3;rotatable=0;labelPosition=right;points=[];portConstraint=eastwest;strokeColor=inherit;" parent="oweBOw8QxQyaaeUaKl41-119" vertex="1">
          <mxGeometry y="78" width="300" height="8" as="geometry" />
        </mxCell>
        <mxCell id="oweBOw8QxQyaaeUaKl41-124" value="  PetCharacteristics" style="swimlane;fontStyle=1;align=center;verticalAlign=top;childLayout=stackLayout;horizontal=1;startSize=26;horizontalStack=0;resizeParent=1;resizeParentMax=0;resizeLast=0;collapsible=1;marginBottom=0;whiteSpace=wrap;html=1;" parent="1" vertex="1">
          <mxGeometry x="1380" y="260" width="160" height="164" as="geometry" />
        </mxCell>
        <mxCell id="oweBOw8QxQyaaeUaKl41-125" value="&lt;span style=&quot;color: rgb(0, 0, 0); font-family: Helvetica; font-size: 12px; font-style: normal; font-variant-ligatures: normal; font-variant-caps: normal; font-weight: 400; letter-spacing: normal; orphans: 2; text-align: left; text-indent: 0px; text-transform: none; widows: 2; word-spacing: 0px; -webkit-text-stroke-width: 0px; background-color: rgb(251, 251, 251); text-decoration-thickness: initial; text-decoration-style: initial; text-decoration-color: initial; float: none; display: inline !important;&quot;&gt;- species: string&lt;/span&gt;" style="text;strokeColor=none;fillColor=none;align=left;verticalAlign=top;spacingLeft=4;spacingRight=4;overflow=hidden;rotatable=0;points=[[0,0.5],[1,0.5]];portConstraint=eastwest;whiteSpace=wrap;html=1;" parent="oweBOw8QxQyaaeUaKl41-124" vertex="1">
          <mxGeometry y="26" width="160" height="26" as="geometry" />
        </mxCell>
        <mxCell id="oweBOw8QxQyaaeUaKl41-131" value="&lt;span style=&quot;color: rgb(0, 0, 0); font-family: Helvetica; font-size: 12px; font-style: normal; font-variant-ligatures: normal; font-variant-caps: normal; font-weight: 400; letter-spacing: normal; orphans: 2; text-align: left; text-indent: 0px; text-transform: none; widows: 2; word-spacing: 0px; -webkit-text-stroke-width: 0px; background-color: rgb(251, 251, 251); text-decoration-thickness: initial; text-decoration-style: initial; text-decoration-color: initial; float: none; display: inline !important;&quot;&gt;- subSpecies: string&lt;/span&gt;" style="text;strokeColor=none;fillColor=none;align=left;verticalAlign=top;spacingLeft=4;spacingRight=4;overflow=hidden;rotatable=0;points=[[0,0.5],[1,0.5]];portConstraint=eastwest;whiteSpace=wrap;html=1;" parent="oweBOw8QxQyaaeUaKl41-124" vertex="1">
          <mxGeometry y="52" width="160" height="26" as="geometry" />
        </mxCell>
        <mxCell id="oweBOw8QxQyaaeUaKl41-130" value="&lt;span style=&quot;color: rgb(0, 0, 0); font-family: Helvetica; font-size: 12px; font-style: normal; font-variant-ligatures: normal; font-variant-caps: normal; font-weight: 400; letter-spacing: normal; orphans: 2; text-align: left; text-indent: 0px; text-transform: none; widows: 2; word-spacing: 0px; -webkit-text-stroke-width: 0px; background-color: rgb(251, 251, 251); text-decoration-thickness: initial; text-decoration-style: initial; text-decoration-color: initial; float: none; display: inline !important;&quot;&gt;- age: number&lt;/span&gt;" style="text;strokeColor=none;fillColor=none;align=left;verticalAlign=top;spacingLeft=4;spacingRight=4;overflow=hidden;rotatable=0;points=[[0,0.5],[1,0.5]];portConstraint=eastwest;whiteSpace=wrap;html=1;" parent="oweBOw8QxQyaaeUaKl41-124" vertex="1">
          <mxGeometry y="78" width="160" height="26" as="geometry" />
        </mxCell>
        <mxCell id="oweBOw8QxQyaaeUaKl41-129" value="&lt;span style=&quot;color: rgb(0, 0, 0); font-family: Helvetica; font-size: 12px; font-style: normal; font-variant-ligatures: normal; font-variant-caps: normal; font-weight: 400; letter-spacing: normal; orphans: 2; text-align: left; text-indent: 0px; text-transform: none; widows: 2; word-spacing: 0px; -webkit-text-stroke-width: 0px; background-color: rgb(251, 251, 251); text-decoration-thickness: initial; text-decoration-style: initial; text-decoration-color: initial; float: none; display: inline !important;&quot;&gt;- gender: string&lt;/span&gt;" style="text;strokeColor=none;fillColor=none;align=left;verticalAlign=top;spacingLeft=4;spacingRight=4;overflow=hidden;rotatable=0;points=[[0,0.5],[1,0.5]];portConstraint=eastwest;whiteSpace=wrap;html=1;" parent="oweBOw8QxQyaaeUaKl41-124" vertex="1">
          <mxGeometry y="104" width="160" height="26" as="geometry" />
        </mxCell>
        <mxCell id="oweBOw8QxQyaaeUaKl41-128" value="&lt;span style=&quot;color: rgb(0, 0, 0); font-family: Helvetica; font-size: 12px; font-style: normal; font-variant-ligatures: normal; font-variant-caps: normal; font-weight: 400; letter-spacing: normal; orphans: 2; text-align: left; text-indent: 0px; text-transform: none; widows: 2; word-spacing: 0px; -webkit-text-stroke-width: 0px; background-color: rgb(251, 251, 251); text-decoration-thickness: initial; text-decoration-style: initial; text-decoration-color: initial; float: none; display: inline !important;&quot;&gt;- color: string&lt;/span&gt;" style="text;strokeColor=none;fillColor=none;align=left;verticalAlign=top;spacingLeft=4;spacingRight=4;overflow=hidden;rotatable=0;points=[[0,0.5],[1,0.5]];portConstraint=eastwest;whiteSpace=wrap;html=1;" parent="oweBOw8QxQyaaeUaKl41-124" vertex="1">
          <mxGeometry y="130" width="160" height="26" as="geometry" />
        </mxCell>
        <mxCell id="oweBOw8QxQyaaeUaKl41-126" value="" style="line;strokeWidth=1;fillColor=none;align=left;verticalAlign=middle;spacingTop=-1;spacingLeft=3;spacingRight=3;rotatable=0;labelPosition=right;points=[];portConstraint=eastwest;strokeColor=inherit;" parent="oweBOw8QxQyaaeUaKl41-124" vertex="1">
          <mxGeometry y="156" width="160" height="8" as="geometry" />
        </mxCell>
        <mxCell id="oweBOw8QxQyaaeUaKl41-132" value="  PermissionsList" style="swimlane;fontStyle=1;align=center;verticalAlign=top;childLayout=stackLayout;horizontal=1;startSize=26;horizontalStack=0;resizeParent=1;resizeParentMax=0;resizeLast=0;collapsible=1;marginBottom=0;whiteSpace=wrap;html=1;" parent="1" vertex="1">
          <mxGeometry x="960" y="260" width="160" height="86" as="geometry" />
        </mxCell>
        <mxCell id="oweBOw8QxQyaaeUaKl41-133" value="&lt;span style=&quot;color: rgb(0, 0, 0); font-family: Helvetica; font-size: 12px; font-style: normal; font-variant-ligatures: normal; font-variant-caps: normal; font-weight: 400; letter-spacing: normal; orphans: 2; text-align: left; text-indent: 0px; text-transform: none; widows: 2; word-spacing: 0px; -webkit-text-stroke-width: 0px; background-color: rgb(251, 251, 251); text-decoration-thickness: initial; text-decoration-style: initial; text-decoration-color: initial; float: none; display: inline !important;&quot;&gt;- permissions: Permission[]&lt;/span&gt;" style="text;strokeColor=none;fillColor=none;align=left;verticalAlign=top;spacingLeft=4;spacingRight=4;overflow=hidden;rotatable=0;points=[[0,0.5],[1,0.5]];portConstraint=eastwest;whiteSpace=wrap;html=1;" parent="oweBOw8QxQyaaeUaKl41-132" vertex="1">
          <mxGeometry y="26" width="160" height="26" as="geometry" />
        </mxCell>
        <mxCell id="oweBOw8QxQyaaeUaKl41-134" value="" style="line;strokeWidth=1;fillColor=none;align=left;verticalAlign=middle;spacingTop=-1;spacingLeft=3;spacingRight=3;rotatable=0;labelPosition=right;points=[];portConstraint=eastwest;strokeColor=inherit;" parent="oweBOw8QxQyaaeUaKl41-132" vertex="1">
          <mxGeometry y="52" width="160" height="8" as="geometry" />
        </mxCell>
        <mxCell id="oweBOw8QxQyaaeUaKl41-135" value="&lt;span style=&quot;color: rgb(0, 0, 0); font-family: Helvetica; font-size: 12px; font-style: normal; font-variant-ligatures: normal; font-variant-caps: normal; font-weight: 400; letter-spacing: normal; orphans: 2; text-align: left; text-indent: 0px; text-transform: none; widows: 2; word-spacing: 0px; -webkit-text-stroke-width: 0px; background-color: rgb(251, 251, 251); text-decoration-thickness: initial; text-decoration-style: initial; text-decoration-color: initial; float: none; display: inline !important;&quot;&gt;+ removePermission()&lt;/span&gt;" style="text;strokeColor=none;fillColor=none;align=left;verticalAlign=top;spacingLeft=4;spacingRight=4;overflow=hidden;rotatable=0;points=[[0,0.5],[1,0.5]];portConstraint=eastwest;whiteSpace=wrap;html=1;" parent="oweBOw8QxQyaaeUaKl41-132" vertex="1">
          <mxGeometry y="60" width="160" height="26" as="geometry" />
        </mxCell>
        <mxCell id="oweBOw8QxQyaaeUaKl41-136" value="" style="endArrow=diamondThin;endFill=1;endSize=24;html=1;rounded=0;" parent="1" source="oweBOw8QxQyaaeUaKl41-132" target="oweBOw8QxQyaaeUaKl41-138" edge="1">
          <mxGeometry width="160" relative="1" as="geometry">
            <mxPoint x="660" y="360" as="sourcePoint" />
            <mxPoint x="820" y="360" as="targetPoint" />
          </mxGeometry>
        </mxCell>
        <mxCell id="oweBOw8QxQyaaeUaKl41-138" value="  User" style="swimlane;fontStyle=1;align=center;verticalAlign=top;childLayout=stackLayout;horizontal=1;startSize=26;horizontalStack=0;resizeParent=1;resizeParentMax=0;resizeLast=0;collapsible=1;marginBottom=0;whiteSpace=wrap;html=1;" parent="1" vertex="1">
          <mxGeometry x="460" y="159" width="225" height="190" as="geometry" />
        </mxCell>
        <mxCell id="oweBOw8QxQyaaeUaKl41-139" value="&lt;span style=&quot;color: rgb(0, 0, 0); font-family: Helvetica; font-size: 12px; font-style: normal; font-variant-ligatures: normal; font-variant-caps: normal; font-weight: 400; letter-spacing: normal; orphans: 2; text-align: left; text-indent: 0px; text-transform: none; widows: 2; word-spacing: 0px; -webkit-text-stroke-width: 0px; background-color: rgb(251, 251, 251); text-decoration-thickness: initial; text-decoration-style: initial; text-decoration-color: initial; float: none; display: inline !important;&quot;&gt;- id: number&lt;/span&gt;" style="text;strokeColor=none;fillColor=none;align=left;verticalAlign=top;spacingLeft=4;spacingRight=4;overflow=hidden;rotatable=0;points=[[0,0.5],[1,0.5]];portConstraint=eastwest;whiteSpace=wrap;html=1;" parent="oweBOw8QxQyaaeUaKl41-138" vertex="1">
          <mxGeometry y="26" width="225" height="26" as="geometry" />
        </mxCell>
        <mxCell id="oweBOw8QxQyaaeUaKl41-146" value="&lt;span style=&quot;color: rgb(0, 0, 0); font-family: Helvetica; font-size: 12px; font-style: normal; font-variant-ligatures: normal; font-variant-caps: normal; font-weight: 400; letter-spacing: normal; orphans: 2; text-align: left; text-indent: 0px; text-transform: none; widows: 2; word-spacing: 0px; -webkit-text-stroke-width: 0px; background-color: rgb(251, 251, 251); text-decoration-thickness: initial; text-decoration-style: initial; text-decoration-color: initial; float: none; display: inline !important;&quot;&gt;- username: string&lt;/span&gt;" style="text;strokeColor=none;fillColor=none;align=left;verticalAlign=top;spacingLeft=4;spacingRight=4;overflow=hidden;rotatable=0;points=[[0,0.5],[1,0.5]];portConstraint=eastwest;whiteSpace=wrap;html=1;" parent="oweBOw8QxQyaaeUaKl41-138" vertex="1">
          <mxGeometry y="52" width="225" height="26" as="geometry" />
        </mxCell>
        <mxCell id="oweBOw8QxQyaaeUaKl41-145" value="- password: string" style="text;strokeColor=none;fillColor=none;align=left;verticalAlign=top;spacingLeft=4;spacingRight=4;overflow=hidden;rotatable=0;points=[[0,0.5],[1,0.5]];portConstraint=eastwest;whiteSpace=wrap;html=1;" parent="oweBOw8QxQyaaeUaKl41-138" vertex="1">
          <mxGeometry y="78" width="225" height="26" as="geometry" />
        </mxCell>
        <mxCell id="oweBOw8QxQyaaeUaKl41-144" value="&lt;span style=&quot;color: rgb(0, 0, 0); font-family: Helvetica; font-size: 12px; font-style: normal; font-variant-ligatures: normal; font-variant-caps: normal; font-weight: 400; letter-spacing: normal; orphans: 2; text-align: left; text-indent: 0px; text-transform: none; widows: 2; word-spacing: 0px; -webkit-text-stroke-width: 0px; background-color: rgb(251, 251, 251); text-decoration-thickness: initial; text-decoration-style: initial; text-decoration-color: initial; float: none; display: inline !important;&quot;&gt;- mail: string&lt;/span&gt;" style="text;strokeColor=none;fillColor=none;align=left;verticalAlign=top;spacingLeft=4;spacingRight=4;overflow=hidden;rotatable=0;points=[[0,0.5],[1,0.5]];portConstraint=eastwest;whiteSpace=wrap;html=1;" parent="oweBOw8QxQyaaeUaKl41-138" vertex="1">
          <mxGeometry y="104" width="225" height="26" as="geometry" />
        </mxCell>
        <mxCell id="oweBOw8QxQyaaeUaKl41-143" value="&lt;span style=&quot;color: rgb(0, 0, 0); font-family: Helvetica; font-size: 12px; font-style: normal; font-variant-ligatures: normal; font-variant-caps: normal; font-weight: 400; letter-spacing: normal; orphans: 2; text-align: left; text-indent: 0px; text-transform: none; widows: 2; word-spacing: 0px; -webkit-text-stroke-width: 0px; background-color: rgb(251, 251, 251); text-decoration-thickness: initial; text-decoration-style: initial; text-decoration-color: initial; float: none; display: inline !important;&quot;&gt;- permissions: PermissionsList&lt;/span&gt;" style="text;strokeColor=none;fillColor=none;align=left;verticalAlign=top;spacingLeft=4;spacingRight=4;overflow=hidden;rotatable=0;points=[[0,0.5],[1,0.5]];portConstraint=eastwest;whiteSpace=wrap;html=1;" parent="oweBOw8QxQyaaeUaKl41-138" vertex="1">
          <mxGeometry y="130" width="225" height="26" as="geometry" />
        </mxCell>
        <mxCell id="oweBOw8QxQyaaeUaKl41-142" value="&lt;span style=&quot;color: rgb(0, 0, 0); font-family: Helvetica; font-size: 12px; font-style: normal; font-variant-ligatures: normal; font-variant-caps: normal; font-weight: 400; letter-spacing: normal; orphans: 2; text-align: left; text-indent: 0px; text-transform: none; widows: 2; word-spacing: 0px; -webkit-text-stroke-width: 0px; background-color: rgb(251, 251, 251); text-decoration-thickness: initial; text-decoration-style: initial; text-decoration-color: initial; float: none; display: inline !important;&quot;&gt;- requests: PermissionRequest[]&lt;/span&gt;" style="text;strokeColor=none;fillColor=none;align=left;verticalAlign=top;spacingLeft=4;spacingRight=4;overflow=hidden;rotatable=0;points=[[0,0.5],[1,0.5]];portConstraint=eastwest;whiteSpace=wrap;html=1;" parent="oweBOw8QxQyaaeUaKl41-138" vertex="1">
          <mxGeometry y="156" width="225" height="26" as="geometry" />
        </mxCell>
        <mxCell id="oweBOw8QxQyaaeUaKl41-140" value="" style="line;strokeWidth=1;fillColor=none;align=left;verticalAlign=middle;spacingTop=-1;spacingLeft=3;spacingRight=3;rotatable=0;labelPosition=right;points=[];portConstraint=eastwest;strokeColor=inherit;" parent="oweBOw8QxQyaaeUaKl41-138" vertex="1">
          <mxGeometry y="182" width="225" height="8" as="geometry" />
        </mxCell>
        <mxCell id="oweBOw8QxQyaaeUaKl41-147" value="  Permission" style="swimlane;fontStyle=1;align=center;verticalAlign=top;childLayout=stackLayout;horizontal=1;startSize=26;horizontalStack=0;resizeParent=1;resizeParentMax=0;resizeLast=0;collapsible=1;marginBottom=0;whiteSpace=wrap;html=1;" parent="1" vertex="1">
          <mxGeometry x="964" y="420" width="160" height="112" as="geometry" />
        </mxCell>
        <mxCell id="oweBOw8QxQyaaeUaKl41-148" value="&lt;span style=&quot;color: rgb(0, 0, 0); font-family: Helvetica; font-size: 12px; font-style: normal; font-variant-ligatures: normal; font-variant-caps: normal; font-weight: 400; letter-spacing: normal; orphans: 2; text-align: left; text-indent: 0px; text-transform: none; widows: 2; word-spacing: 0px; -webkit-text-stroke-width: 0px; background-color: rgb(251, 251, 251); text-decoration-thickness: initial; text-decoration-style: initial; text-decoration-color: initial; float: none; display: inline !important;&quot;&gt;- user: User&lt;/span&gt;" style="text;strokeColor=none;fillColor=none;align=left;verticalAlign=top;spacingLeft=4;spacingRight=4;overflow=hidden;rotatable=0;points=[[0,0.5],[1,0.5]];portConstraint=eastwest;whiteSpace=wrap;html=1;" parent="oweBOw8QxQyaaeUaKl41-147" vertex="1">
          <mxGeometry y="26" width="160" height="26" as="geometry" />
        </mxCell>
        <mxCell id="oweBOw8QxQyaaeUaKl41-152" value="&lt;span style=&quot;color: rgb(0, 0, 0); font-family: Helvetica; font-size: 12px; font-style: normal; font-variant-ligatures: normal; font-variant-caps: normal; font-weight: 400; letter-spacing: normal; orphans: 2; text-align: left; text-indent: 0px; text-transform: none; widows: 2; word-spacing: 0px; -webkit-text-stroke-width: 0px; background-color: rgb(251, 251, 251); text-decoration-thickness: initial; text-decoration-style: initial; text-decoration-color: initial; float: none; display: inline !important;&quot;&gt;- shelter: Shelter&lt;/span&gt;" style="text;strokeColor=none;fillColor=none;align=left;verticalAlign=top;spacingLeft=4;spacingRight=4;overflow=hidden;rotatable=0;points=[[0,0.5],[1,0.5]];portConstraint=eastwest;whiteSpace=wrap;html=1;" parent="oweBOw8QxQyaaeUaKl41-147" vertex="1">
          <mxGeometry y="52" width="160" height="26" as="geometry" />
        </mxCell>
        <mxCell id="oweBOw8QxQyaaeUaKl41-151" value="&lt;span style=&quot;color: rgb(0, 0, 0); font-family: Helvetica; font-size: 12px; font-style: normal; font-variant-ligatures: normal; font-variant-caps: normal; font-weight: 400; letter-spacing: normal; orphans: 2; text-align: left; text-indent: 0px; text-transform: none; widows: 2; word-spacing: 0px; -webkit-text-stroke-width: 0px; background-color: rgb(251, 251, 251); text-decoration-thickness: initial; text-decoration-style: initial; text-decoration-color: initial; float: none; display: inline !important;&quot;&gt;- value: number&lt;/span&gt;" style="text;strokeColor=none;fillColor=none;align=left;verticalAlign=top;spacingLeft=4;spacingRight=4;overflow=hidden;rotatable=0;points=[[0,0.5],[1,0.5]];portConstraint=eastwest;whiteSpace=wrap;html=1;" parent="oweBOw8QxQyaaeUaKl41-147" vertex="1">
          <mxGeometry y="78" width="160" height="26" as="geometry" />
        </mxCell>
        <mxCell id="oweBOw8QxQyaaeUaKl41-149" value="" style="line;strokeWidth=1;fillColor=none;align=left;verticalAlign=middle;spacingTop=-1;spacingLeft=3;spacingRight=3;rotatable=0;labelPosition=right;points=[];portConstraint=eastwest;strokeColor=inherit;" parent="oweBOw8QxQyaaeUaKl41-147" vertex="1">
          <mxGeometry y="104" width="160" height="8" as="geometry" />
        </mxCell>
        <mxCell id="oweBOw8QxQyaaeUaKl41-162" value="  AdsPage" style="swimlane;fontStyle=1;align=center;verticalAlign=top;childLayout=stackLayout;horizontal=1;startSize=26;horizontalStack=0;resizeParent=1;resizeParentMax=0;resizeLast=0;collapsible=1;marginBottom=0;whiteSpace=wrap;html=1;" parent="1" vertex="1">
          <mxGeometry x="215" y="120" width="160" height="268" as="geometry" />
        </mxCell>
        <mxCell id="oweBOw8QxQyaaeUaKl41-163" value="&lt;span style=&quot;color: rgb(0, 0, 0); font-family: Helvetica; font-size: 12px; font-style: normal; font-variant-ligatures: normal; font-variant-caps: normal; font-weight: 400; letter-spacing: normal; orphans: 2; text-align: left; text-indent: 0px; text-transform: none; widows: 2; word-spacing: 0px; -webkit-text-stroke-width: 0px; background-color: rgb(251, 251, 251); text-decoration-thickness: initial; text-decoration-style: initial; text-decoration-color: initial; float: none; display: inline !important;&quot;&gt;- ads: Ad[]&lt;/span&gt;" style="text;strokeColor=none;fillColor=none;align=left;verticalAlign=top;spacingLeft=4;spacingRight=4;overflow=hidden;rotatable=0;points=[[0,0.5],[1,0.5]];portConstraint=eastwest;whiteSpace=wrap;html=1;" parent="oweBOw8QxQyaaeUaKl41-162" vertex="1">
          <mxGeometry y="26" width="160" height="26" as="geometry" />
        </mxCell>
        <mxCell id="oweBOw8QxQyaaeUaKl41-167" value="&lt;span style=&quot;color: rgb(0, 0, 0); font-family: Helvetica; font-size: 12px; font-style: normal; font-variant-ligatures: normal; font-variant-caps: normal; font-weight: 400; letter-spacing: normal; orphans: 2; text-align: left; text-indent: 0px; text-transform: none; widows: 2; word-spacing: 0px; -webkit-text-stroke-width: 0px; background-color: rgb(251, 251, 251); text-decoration-thickness: initial; text-decoration-style: initial; text-decoration-color: initial; float: none; display: inline !important;&quot;&gt;- filters: AdFilters&lt;/span&gt;" style="text;strokeColor=none;fillColor=none;align=left;verticalAlign=top;spacingLeft=4;spacingRight=4;overflow=hidden;rotatable=0;points=[[0,0.5],[1,0.5]];portConstraint=eastwest;whiteSpace=wrap;html=1;" parent="oweBOw8QxQyaaeUaKl41-162" vertex="1">
          <mxGeometry y="52" width="160" height="26" as="geometry" />
        </mxCell>
        <mxCell id="oweBOw8QxQyaaeUaKl41-166" value="&lt;span style=&quot;color: rgb(0, 0, 0); font-family: Helvetica; font-size: 12px; font-style: normal; font-variant-ligatures: normal; font-variant-caps: normal; font-weight: 400; letter-spacing: normal; orphans: 2; text-align: left; text-indent: 0px; text-transform: none; widows: 2; word-spacing: 0px; -webkit-text-stroke-width: 0px; background-color: rgb(251, 251, 251); text-decoration-thickness: initial; text-decoration-style: initial; text-decoration-color: initial; float: none; display: inline !important;&quot;&gt;- currentAd: Ad&lt;/span&gt;" style="text;strokeColor=none;fillColor=none;align=left;verticalAlign=top;spacingLeft=4;spacingRight=4;overflow=hidden;rotatable=0;points=[[0,0.5],[1,0.5]];portConstraint=eastwest;whiteSpace=wrap;html=1;" parent="oweBOw8QxQyaaeUaKl41-162" vertex="1">
          <mxGeometry y="78" width="160" height="26" as="geometry" />
        </mxCell>
        <mxCell id="oweBOw8QxQyaaeUaKl41-164" value="" style="line;strokeWidth=1;fillColor=none;align=left;verticalAlign=middle;spacingTop=-1;spacingLeft=3;spacingRight=3;rotatable=0;labelPosition=right;points=[];portConstraint=eastwest;strokeColor=inherit;" parent="oweBOw8QxQyaaeUaKl41-162" vertex="1">
          <mxGeometry y="104" width="160" height="8" as="geometry" />
        </mxCell>
        <mxCell id="oweBOw8QxQyaaeUaKl41-169" value="&lt;span style=&quot;color: rgb(0, 0, 0); font-family: Helvetica; font-size: 12px; font-style: normal; font-variant-ligatures: normal; font-variant-caps: normal; font-weight: 400; letter-spacing: normal; orphans: 2; text-align: left; text-indent: 0px; text-transform: none; widows: 2; word-spacing: 0px; -webkit-text-stroke-width: 0px; background-color: rgb(251, 251, 251); text-decoration-thickness: initial; text-decoration-style: initial; text-decoration-color: initial; float: none; display: inline !important;&quot;&gt;+ scrollAds()&lt;/span&gt;" style="text;strokeColor=none;fillColor=none;align=left;verticalAlign=top;spacingLeft=4;spacingRight=4;overflow=hidden;rotatable=0;points=[[0,0.5],[1,0.5]];portConstraint=eastwest;whiteSpace=wrap;html=1;" parent="oweBOw8QxQyaaeUaKl41-162" vertex="1">
          <mxGeometry y="112" width="160" height="26" as="geometry" />
        </mxCell>
        <mxCell id="3W3_1-_KSL4Sj8vSvyoJ-9" value="+ scrollCurrent()" style="text;strokeColor=none;fillColor=none;align=left;verticalAlign=top;spacingLeft=4;spacingRight=4;overflow=hidden;rotatable=0;points=[[0,0.5],[1,0.5]];portConstraint=eastwest;whiteSpace=wrap;html=1;" parent="oweBOw8QxQyaaeUaKl41-162" vertex="1">
          <mxGeometry y="138" width="160" height="26" as="geometry" />
        </mxCell>
        <mxCell id="oweBOw8QxQyaaeUaKl41-168" value="&lt;span style=&quot;color: rgb(0, 0, 0); font-family: Helvetica; font-size: 12px; font-style: normal; font-variant-ligatures: normal; font-variant-caps: normal; font-weight: 400; letter-spacing: normal; orphans: 2; text-align: left; text-indent: 0px; text-transform: none; widows: 2; word-spacing: 0px; -webkit-text-stroke-width: 0px; background-color: rgb(251, 251, 251); text-decoration-thickness: initial; text-decoration-style: initial; text-decoration-color: initial; float: none; display: inline !important;&quot;&gt;+ addAd()&lt;/span&gt;" style="text;strokeColor=none;fillColor=none;align=left;verticalAlign=top;spacingLeft=4;spacingRight=4;overflow=hidden;rotatable=0;points=[[0,0.5],[1,0.5]];portConstraint=eastwest;whiteSpace=wrap;html=1;" parent="oweBOw8QxQyaaeUaKl41-162" vertex="1">
          <mxGeometry y="164" width="160" height="26" as="geometry" />
        </mxCell>
        <mxCell id="3W3_1-_KSL4Sj8vSvyoJ-1" value="+ render()" style="text;strokeColor=none;fillColor=none;align=left;verticalAlign=top;spacingLeft=4;spacingRight=4;overflow=hidden;rotatable=0;points=[[0,0.5],[1,0.5]];portConstraint=eastwest;whiteSpace=wrap;html=1;" parent="oweBOw8QxQyaaeUaKl41-162" vertex="1">
          <mxGeometry y="190" width="160" height="26" as="geometry" />
        </mxCell>
        <mxCell id="RSynZi1_8BhcVsq7QEgv-1" value="+ removeAd()" style="text;strokeColor=none;fillColor=none;align=left;verticalAlign=top;spacingLeft=4;spacingRight=4;overflow=hidden;rotatable=0;points=[[0,0.5],[1,0.5]];portConstraint=eastwest;whiteSpace=wrap;html=1;" parent="oweBOw8QxQyaaeUaKl41-162" vertex="1">
          <mxGeometry y="216" width="160" height="26" as="geometry" />
        </mxCell>
        <mxCell id="4QOzVW0hatNV2V5p3wcj-1" value="+ setAd()" style="text;strokeColor=none;fillColor=none;align=left;verticalAlign=top;spacingLeft=4;spacingRight=4;overflow=hidden;rotatable=0;points=[[0,0.5],[1,0.5]];portConstraint=eastwest;whiteSpace=wrap;html=1;" parent="oweBOw8QxQyaaeUaKl41-162" vertex="1">
          <mxGeometry y="242" width="160" height="26" as="geometry" />
        </mxCell>
        <mxCell id="oweBOw8QxQyaaeUaKl41-170" value="  AppSettings" style="swimlane;fontStyle=1;align=center;verticalAlign=top;childLayout=stackLayout;horizontal=1;startSize=26;horizontalStack=0;resizeParent=1;resizeParentMax=0;resizeLast=0;collapsible=1;marginBottom=0;whiteSpace=wrap;html=1;" parent="1" vertex="1">
          <mxGeometry x="1160" y="-170" width="160" height="164" as="geometry" />
        </mxCell>
        <mxCell id="oweBOw8QxQyaaeUaKl41-172" value="" style="line;strokeWidth=1;fillColor=none;align=left;verticalAlign=middle;spacingTop=-1;spacingLeft=3;spacingRight=3;rotatable=0;labelPosition=right;points=[];portConstraint=eastwest;strokeColor=inherit;" parent="oweBOw8QxQyaaeUaKl41-170" vertex="1">
          <mxGeometry y="26" width="160" height="8" as="geometry" />
        </mxCell>
        <mxCell id="oweBOw8QxQyaaeUaKl41-173" value="&lt;span style=&quot;color: rgb(0, 0, 0); font-family: Helvetica; font-size: 12px; font-style: normal; font-variant-ligatures: normal; font-variant-caps: normal; font-weight: 400; letter-spacing: normal; orphans: 2; text-align: left; text-indent: 0px; text-transform: none; widows: 2; word-spacing: 0px; -webkit-text-stroke-width: 0px; background-color: rgb(251, 251, 251); text-decoration-thickness: initial; text-decoration-style: initial; text-decoration-color: initial; float: none; display: inline !important;&quot;&gt;+ setPassword()&lt;/span&gt;" style="text;strokeColor=none;fillColor=none;align=left;verticalAlign=top;spacingLeft=4;spacingRight=4;overflow=hidden;rotatable=0;points=[[0,0.5],[1,0.5]];portConstraint=eastwest;whiteSpace=wrap;html=1;" parent="oweBOw8QxQyaaeUaKl41-170" vertex="1">
          <mxGeometry y="34" width="160" height="26" as="geometry" />
        </mxCell>
        <mxCell id="oweBOw8QxQyaaeUaKl41-184" value="&lt;span style=&quot;color: rgb(0, 0, 0); font-family: Helvetica; font-size: 12px; font-style: normal; font-variant-ligatures: normal; font-variant-caps: normal; font-weight: 400; letter-spacing: normal; orphans: 2; text-align: left; text-indent: 0px; text-transform: none; widows: 2; word-spacing: 0px; -webkit-text-stroke-width: 0px; background-color: rgb(251, 251, 251); text-decoration-thickness: initial; text-decoration-style: initial; text-decoration-color: initial; float: none; display: inline !important;&quot;&gt;+ setUsername()&lt;/span&gt;" style="text;strokeColor=none;fillColor=none;align=left;verticalAlign=top;spacingLeft=4;spacingRight=4;overflow=hidden;rotatable=0;points=[[0,0.5],[1,0.5]];portConstraint=eastwest;whiteSpace=wrap;html=1;" parent="oweBOw8QxQyaaeUaKl41-170" vertex="1">
          <mxGeometry y="60" width="160" height="26" as="geometry" />
        </mxCell>
        <mxCell id="oweBOw8QxQyaaeUaKl41-183" value="&lt;span style=&quot;color: rgb(0, 0, 0); font-family: Helvetica; font-size: 12px; font-style: normal; font-variant-ligatures: normal; font-variant-caps: normal; font-weight: 400; letter-spacing: normal; orphans: 2; text-align: left; text-indent: 0px; text-transform: none; widows: 2; word-spacing: 0px; -webkit-text-stroke-width: 0px; background-color: rgb(251, 251, 251); text-decoration-thickness: initial; text-decoration-style: initial; text-decoration-color: initial; float: none; display: inline !important;&quot;&gt;+ setMail()&lt;/span&gt;" style="text;strokeColor=none;fillColor=none;align=left;verticalAlign=top;spacingLeft=4;spacingRight=4;overflow=hidden;rotatable=0;points=[[0,0.5],[1,0.5]];portConstraint=eastwest;whiteSpace=wrap;html=1;" parent="oweBOw8QxQyaaeUaKl41-170" vertex="1">
          <mxGeometry y="86" width="160" height="26" as="geometry" />
        </mxCell>
        <mxCell id="oweBOw8QxQyaaeUaKl41-182" value="&lt;span style=&quot;color: rgb(0, 0, 0); font-family: Helvetica; font-size: 12px; font-style: normal; font-variant-ligatures: normal; font-variant-caps: normal; font-weight: 400; letter-spacing: normal; orphans: 2; text-align: left; text-indent: 0px; text-transform: none; widows: 2; word-spacing: 0px; -webkit-text-stroke-width: 0px; background-color: rgb(251, 251, 251); text-decoration-thickness: initial; text-decoration-style: initial; text-decoration-color: initial; float: none; display: inline !important;&quot;&gt;+ deleteAccount()&lt;/span&gt;" style="text;strokeColor=none;fillColor=none;align=left;verticalAlign=top;spacingLeft=4;spacingRight=4;overflow=hidden;rotatable=0;points=[[0,0.5],[1,0.5]];portConstraint=eastwest;whiteSpace=wrap;html=1;" parent="oweBOw8QxQyaaeUaKl41-170" vertex="1">
          <mxGeometry y="112" width="160" height="26" as="geometry" />
        </mxCell>
        <mxCell id="oweBOw8QxQyaaeUaKl41-181" value="&lt;span style=&quot;color: rgb(0, 0, 0); font-family: Helvetica; font-size: 12px; font-style: normal; font-variant-ligatures: normal; font-variant-caps: normal; font-weight: 400; letter-spacing: normal; orphans: 2; text-align: left; text-indent: 0px; text-transform: none; widows: 2; word-spacing: 0px; -webkit-text-stroke-width: 0px; background-color: rgb(251, 251, 251); text-decoration-thickness: initial; text-decoration-style: initial; text-decoration-color: initial; float: none; display: inline !important;&quot;&gt;+ logout()&lt;/span&gt;" style="text;strokeColor=none;fillColor=none;align=left;verticalAlign=top;spacingLeft=4;spacingRight=4;overflow=hidden;rotatable=0;points=[[0,0.5],[1,0.5]];portConstraint=eastwest;whiteSpace=wrap;html=1;" parent="oweBOw8QxQyaaeUaKl41-170" vertex="1">
          <mxGeometry y="138" width="160" height="26" as="geometry" />
        </mxCell>
        <mxCell id="oweBOw8QxQyaaeUaKl41-185" value="  PreferencesScreen" style="swimlane;fontStyle=1;align=center;verticalAlign=top;childLayout=stackLayout;horizontal=1;startSize=26;horizontalStack=0;resizeParent=1;resizeParentMax=0;resizeLast=0;collapsible=1;marginBottom=0;whiteSpace=wrap;html=1;" parent="1" vertex="1">
          <mxGeometry x="900" y="-412" width="160" height="164" as="geometry" />
        </mxCell>
        <mxCell id="oweBOw8QxQyaaeUaKl41-186" value="&lt;span style=&quot;color: rgb(0, 0, 0); font-family: Helvetica; font-size: 12px; font-style: normal; font-variant-ligatures: normal; font-variant-caps: normal; font-weight: 400; letter-spacing: normal; orphans: 2; text-align: left; text-indent: 0px; text-transform: none; widows: 2; word-spacing: 0px; -webkit-text-stroke-width: 0px; background-color: rgb(251, 251, 251); text-decoration-thickness: initial; text-decoration-style: initial; text-decoration-color: initial; float: none; display: inline !important;&quot;&gt;+ adFilters: AdFilters&lt;/span&gt;" style="text;strokeColor=none;fillColor=none;align=left;verticalAlign=top;spacingLeft=4;spacingRight=4;overflow=hidden;rotatable=0;points=[[0,0.5],[1,0.5]];portConstraint=eastwest;whiteSpace=wrap;html=1;" parent="oweBOw8QxQyaaeUaKl41-185" vertex="1">
          <mxGeometry y="26" width="160" height="26" as="geometry" />
        </mxCell>
        <mxCell id="oweBOw8QxQyaaeUaKl41-189" value="&lt;span style=&quot;color: rgb(0, 0, 0); font-family: Helvetica; font-size: 12px; font-style: normal; font-variant-ligatures: normal; font-variant-caps: normal; font-weight: 400; letter-spacing: normal; orphans: 2; text-align: left; text-indent: 0px; text-transform: none; widows: 2; word-spacing: 0px; -webkit-text-stroke-width: 0px; background-color: rgb(251, 251, 251); text-decoration-thickness: initial; text-decoration-style: initial; text-decoration-color: initial; float: none; display: inline !important;&quot;&gt;- settings: AppSettings&lt;/span&gt;" style="text;strokeColor=none;fillColor=none;align=left;verticalAlign=top;spacingLeft=4;spacingRight=4;overflow=hidden;rotatable=0;points=[[0,0.5],[1,0.5]];portConstraint=eastwest;whiteSpace=wrap;html=1;" parent="oweBOw8QxQyaaeUaKl41-185" vertex="1">
          <mxGeometry y="52" width="160" height="26" as="geometry" />
        </mxCell>
        <mxCell id="oweBOw8QxQyaaeUaKl41-187" value="" style="line;strokeWidth=1;fillColor=none;align=left;verticalAlign=middle;spacingTop=-1;spacingLeft=3;spacingRight=3;rotatable=0;labelPosition=right;points=[];portConstraint=eastwest;strokeColor=inherit;" parent="oweBOw8QxQyaaeUaKl41-185" vertex="1">
          <mxGeometry y="78" width="160" height="8" as="geometry" />
        </mxCell>
        <mxCell id="gNH5sCob12Ak3Dl_MP5L-17" value="+ render()" style="text;strokeColor=none;fillColor=none;align=left;verticalAlign=top;spacingLeft=4;spacingRight=4;overflow=hidden;rotatable=0;points=[[0,0.5],[1,0.5]];portConstraint=eastwest;whiteSpace=wrap;html=1;" parent="oweBOw8QxQyaaeUaKl41-185" vertex="1">
          <mxGeometry y="86" width="160" height="26" as="geometry" />
        </mxCell>
        <mxCell id="oweBOw8QxQyaaeUaKl41-188" value="&lt;span style=&quot;color: rgb(0, 0, 0); font-family: Helvetica; font-size: 12px; font-style: normal; font-variant-ligatures: normal; font-variant-caps: normal; font-weight: 400; letter-spacing: normal; orphans: 2; text-align: left; text-indent: 0px; text-transform: none; widows: 2; word-spacing: 0px; -webkit-text-stroke-width: 0px; background-color: rgb(251, 251, 251); text-decoration-thickness: initial; text-decoration-style: initial; text-decoration-color: initial; float: none; display: inline !important;&quot;&gt;+ setFilters()&lt;/span&gt;" style="text;strokeColor=none;fillColor=none;align=left;verticalAlign=top;spacingLeft=4;spacingRight=4;overflow=hidden;rotatable=0;points=[[0,0.5],[1,0.5]];portConstraint=eastwest;whiteSpace=wrap;html=1;" parent="oweBOw8QxQyaaeUaKl41-185" vertex="1">
          <mxGeometry y="112" width="160" height="26" as="geometry" />
        </mxCell>
        <mxCell id="oweBOw8QxQyaaeUaKl41-191" value="&lt;span style=&quot;color: rgb(0, 0, 0); font-family: Helvetica; font-size: 12px; font-style: normal; font-variant-ligatures: normal; font-variant-caps: normal; font-weight: 400; letter-spacing: normal; orphans: 2; text-align: left; text-indent: 0px; text-transform: none; widows: 2; word-spacing: 0px; -webkit-text-stroke-width: 0px; background-color: rgb(251, 251, 251); text-decoration-thickness: initial; text-decoration-style: initial; text-decoration-color: initial; float: none; display: inline !important;&quot;&gt;- setSettings()&lt;/span&gt;" style="text;strokeColor=none;fillColor=none;align=left;verticalAlign=top;spacingLeft=4;spacingRight=4;overflow=hidden;rotatable=0;points=[[0,0.5],[1,0.5]];portConstraint=eastwest;whiteSpace=wrap;html=1;" parent="oweBOw8QxQyaaeUaKl41-185" vertex="1">
          <mxGeometry y="138" width="160" height="26" as="geometry" />
        </mxCell>
        <mxCell id="oweBOw8QxQyaaeUaKl41-193" value="  AdFilters" style="swimlane;fontStyle=1;align=center;verticalAlign=top;childLayout=stackLayout;horizontal=1;startSize=26;horizontalStack=0;resizeParent=1;resizeParentMax=0;resizeLast=0;collapsible=1;marginBottom=0;whiteSpace=wrap;html=1;" parent="1" vertex="1">
          <mxGeometry x="650" y="-170" width="269" height="86" as="geometry" />
        </mxCell>
        <mxCell id="oweBOw8QxQyaaeUaKl41-194" value="&lt;span style=&quot;color: rgb(0, 0, 0); font-family: Helvetica; font-size: 12px; font-style: normal; font-variant-ligatures: normal; font-variant-caps: normal; font-weight: 400; letter-spacing: normal; orphans: 2; text-align: left; text-indent: 0px; text-transform: none; widows: 2; word-spacing: 0px; -webkit-text-stroke-width: 0px; background-color: rgb(251, 251, 251); text-decoration-thickness: initial; text-decoration-style: initial; text-decoration-color: initial; float: none; display: inline !important;&quot;&gt;- petCharateristics: PetCharacteristics&lt;/span&gt;" style="text;strokeColor=none;fillColor=none;align=left;verticalAlign=top;spacingLeft=4;spacingRight=4;overflow=hidden;rotatable=0;points=[[0,0.5],[1,0.5]];portConstraint=eastwest;whiteSpace=wrap;html=1;" parent="oweBOw8QxQyaaeUaKl41-193" vertex="1">
          <mxGeometry y="26" width="269" height="26" as="geometry" />
        </mxCell>
        <mxCell id="oweBOw8QxQyaaeUaKl41-195" value="" style="line;strokeWidth=1;fillColor=none;align=left;verticalAlign=middle;spacingTop=-1;spacingLeft=3;spacingRight=3;rotatable=0;labelPosition=right;points=[];portConstraint=eastwest;strokeColor=inherit;" parent="oweBOw8QxQyaaeUaKl41-193" vertex="1">
          <mxGeometry y="52" width="269" height="8" as="geometry" />
        </mxCell>
        <mxCell id="OQqH39_nWWsHGgEQ9Ou6-3" value="&lt;span style=&quot;color: rgb(0, 0, 0); font-family: Helvetica; font-size: 12px; font-style: normal; font-variant-ligatures: normal; font-variant-caps: normal; font-weight: 400; letter-spacing: normal; orphans: 2; text-align: left; text-indent: 0px; text-transform: none; widows: 2; word-spacing: 0px; -webkit-text-stroke-width: 0px; background-color: rgb(251, 251, 251); text-decoration-thickness: initial; text-decoration-style: initial; text-decoration-color: initial; float: none; display: inline !important;&quot;&gt;+ setPetCharateristics()&lt;/span&gt;" style="text;strokeColor=none;fillColor=none;align=left;verticalAlign=top;spacingLeft=4;spacingRight=4;overflow=hidden;rotatable=0;points=[[0,0.5],[1,0.5]];portConstraint=eastwest;whiteSpace=wrap;html=1;" parent="oweBOw8QxQyaaeUaKl41-193" vertex="1">
          <mxGeometry y="60" width="269" height="26" as="geometry" />
        </mxCell>
        <mxCell id="oweBOw8QxQyaaeUaKl41-197" value="  «interface»&lt;br style=&quot;border-color: var(--border-color);&quot;&gt;ScrollPage" style="swimlane;fontStyle=1;align=center;verticalAlign=top;childLayout=stackLayout;horizontal=1;startSize=40;horizontalStack=0;resizeParent=1;resizeParentMax=0;resizeLast=0;collapsible=1;marginBottom=0;whiteSpace=wrap;html=1;" parent="1" vertex="1">
          <mxGeometry x="45" y="-170" width="160" height="74" as="geometry" />
        </mxCell>
        <mxCell id="oweBOw8QxQyaaeUaKl41-199" value="" style="line;strokeWidth=1;fillColor=none;align=left;verticalAlign=middle;spacingTop=-1;spacingLeft=3;spacingRight=3;rotatable=0;labelPosition=right;points=[];portConstraint=eastwest;strokeColor=inherit;" parent="oweBOw8QxQyaaeUaKl41-197" vertex="1">
          <mxGeometry y="40" width="160" height="8" as="geometry" />
        </mxCell>
        <mxCell id="oweBOw8QxQyaaeUaKl41-200" value="&lt;span style=&quot;color: rgb(0, 0, 0); font-family: Helvetica; font-size: 12px; font-style: normal; font-variant-ligatures: normal; font-variant-caps: normal; font-weight: 400; letter-spacing: normal; orphans: 2; text-align: left; text-indent: 0px; text-transform: none; widows: 2; word-spacing: 0px; -webkit-text-stroke-width: 0px; background-color: rgb(251, 251, 251); text-decoration-thickness: initial; text-decoration-style: initial; text-decoration-color: initial; float: none; display: inline !important;&quot;&gt;+ scroll()&lt;/span&gt;" style="text;strokeColor=none;fillColor=none;align=left;verticalAlign=top;spacingLeft=4;spacingRight=4;overflow=hidden;rotatable=0;points=[[0,0.5],[1,0.5]];portConstraint=eastwest;whiteSpace=wrap;html=1;" parent="oweBOw8QxQyaaeUaKl41-197" vertex="1">
          <mxGeometry y="48" width="160" height="26" as="geometry" />
        </mxCell>
        <mxCell id="oweBOw8QxQyaaeUaKl41-201" value="«interface»&lt;br&gt;&amp;nbsp; HomeScreen" style="swimlane;fontStyle=1;align=center;verticalAlign=top;childLayout=stackLayout;horizontal=1;startSize=42;horizontalStack=0;resizeParent=1;resizeParentMax=0;resizeLast=0;collapsible=1;marginBottom=0;whiteSpace=wrap;html=1;" parent="1" vertex="1">
          <mxGeometry x="45" y="-400" width="160" height="76" as="geometry" />
        </mxCell>
        <mxCell id="oweBOw8QxQyaaeUaKl41-203" value="" style="line;strokeWidth=1;fillColor=none;align=left;verticalAlign=middle;spacingTop=-1;spacingLeft=3;spacingRight=3;rotatable=0;labelPosition=right;points=[];portConstraint=eastwest;strokeColor=inherit;" parent="oweBOw8QxQyaaeUaKl41-201" vertex="1">
          <mxGeometry y="42" width="160" height="8" as="geometry" />
        </mxCell>
        <mxCell id="3W3_1-_KSL4Sj8vSvyoJ-4" value="+ render()" style="text;strokeColor=none;fillColor=none;align=left;verticalAlign=top;spacingLeft=4;spacingRight=4;overflow=hidden;rotatable=0;points=[[0,0.5],[1,0.5]];portConstraint=eastwest;whiteSpace=wrap;html=1;" parent="oweBOw8QxQyaaeUaKl41-201" vertex="1">
          <mxGeometry y="50" width="160" height="26" as="geometry" />
        </mxCell>
        <mxCell id="oweBOw8QxQyaaeUaKl41-205" value="  App" style="swimlane;fontStyle=1;align=center;verticalAlign=top;childLayout=stackLayout;horizontal=1;startSize=26;horizontalStack=0;resizeParent=1;resizeParentMax=0;resizeLast=0;collapsible=1;marginBottom=0;whiteSpace=wrap;html=1;" parent="1" vertex="1">
          <mxGeometry x="-5" y="-1185" width="260" height="138" as="geometry">
            <mxRectangle x="-5" y="-1185" width="60" height="30" as="alternateBounds" />
          </mxGeometry>
        </mxCell>
        <mxCell id="oweBOw8QxQyaaeUaKl41-206" value="+ currentScreen: Screen" style="text;strokeColor=none;fillColor=none;align=left;verticalAlign=top;spacingLeft=4;spacingRight=4;overflow=hidden;rotatable=0;points=[[0,0.5],[1,0.5]];portConstraint=eastwest;whiteSpace=wrap;html=1;" parent="oweBOw8QxQyaaeUaKl41-205" vertex="1">
          <mxGeometry y="26" width="260" height="26" as="geometry" />
        </mxCell>
        <mxCell id="oweBOw8QxQyaaeUaKl41-211" value="&lt;span style=&quot;color: rgb(0, 0, 0); font-family: Helvetica; font-size: 12px; font-style: normal; font-variant-ligatures: normal; font-variant-caps: normal; font-weight: 400; letter-spacing: normal; orphans: 2; text-align: left; text-indent: 0px; text-transform: none; widows: 2; word-spacing: 0px; -webkit-text-stroke-width: 0px; background-color: rgb(251, 251, 251); text-decoration-thickness: initial; text-decoration-style: initial; text-decoration-color: initial; float: none; display: inline !important;&quot;&gt;+ loggedInUser: User&lt;/span&gt;" style="text;strokeColor=none;fillColor=none;align=left;verticalAlign=top;spacingLeft=4;spacingRight=4;overflow=hidden;rotatable=0;points=[[0,0.5],[1,0.5]];portConstraint=eastwest;whiteSpace=wrap;html=1;" parent="oweBOw8QxQyaaeUaKl41-205" vertex="1">
          <mxGeometry y="52" width="260" height="26" as="geometry" />
        </mxCell>
        <mxCell id="oweBOw8QxQyaaeUaKl41-210" value="&lt;span style=&quot;color: rgb(0, 0, 0); font-family: Helvetica; font-size: 12px; font-style: normal; font-variant-ligatures: normal; font-variant-caps: normal; font-weight: 400; letter-spacing: normal; orphans: 2; text-align: left; text-indent: 0px; text-transform: none; widows: 2; word-spacing: 0px; -webkit-text-stroke-width: 0px; background-color: rgb(251, 251, 251); text-decoration-thickness: initial; text-decoration-style: initial; text-decoration-color: initial; float: none; display: inline !important;&quot;&gt;+ database: Database&lt;/span&gt;" style="text;strokeColor=none;fillColor=none;align=left;verticalAlign=top;spacingLeft=4;spacingRight=4;overflow=hidden;rotatable=0;points=[[0,0.5],[1,0.5]];portConstraint=eastwest;whiteSpace=wrap;html=1;" parent="oweBOw8QxQyaaeUaKl41-205" vertex="1">
          <mxGeometry y="78" width="260" height="26" as="geometry" />
        </mxCell>
        <mxCell id="oweBOw8QxQyaaeUaKl41-207" value="" style="line;strokeWidth=1;fillColor=none;align=left;verticalAlign=middle;spacingTop=-1;spacingLeft=3;spacingRight=3;rotatable=0;labelPosition=right;points=[];portConstraint=eastwest;strokeColor=inherit;" parent="oweBOw8QxQyaaeUaKl41-205" vertex="1">
          <mxGeometry y="104" width="260" height="8" as="geometry" />
        </mxCell>
        <mxCell id="oweBOw8QxQyaaeUaKl41-215" value="&lt;span style=&quot;color: rgb(0, 0, 0); font-family: Helvetica; font-size: 12px; font-style: normal; font-variant-ligatures: normal; font-variant-caps: normal; font-weight: 400; letter-spacing: normal; orphans: 2; text-align: left; text-indent: 0px; text-transform: none; widows: 2; word-spacing: 0px; -webkit-text-stroke-width: 0px; background-color: rgb(251, 251, 251); text-decoration-thickness: initial; text-decoration-style: initial; text-decoration-color: initial; float: none; display: inline !important;&quot;&gt;+ setCurrentScreen()&lt;/span&gt;" style="text;strokeColor=none;fillColor=none;align=left;verticalAlign=top;spacingLeft=4;spacingRight=4;overflow=hidden;rotatable=0;points=[[0,0.5],[1,0.5]];portConstraint=eastwest;whiteSpace=wrap;html=1;" parent="oweBOw8QxQyaaeUaKl41-205" vertex="1">
          <mxGeometry y="112" width="260" height="26" as="geometry" />
        </mxCell>
        <mxCell id="oweBOw8QxQyaaeUaKl41-220" value="«interface»&lt;br style=&quot;border-color: var(--border-color);&quot;&gt;Database" style="swimlane;fontStyle=1;align=center;verticalAlign=top;childLayout=stackLayout;horizontal=1;startSize=40;horizontalStack=0;resizeParent=1;resizeParentMax=0;resizeLast=0;collapsible=1;marginBottom=0;whiteSpace=wrap;html=1;" parent="1" vertex="1">
          <mxGeometry x="280" y="-1670" width="160" height="360" as="geometry" />
        </mxCell>
        <mxCell id="oweBOw8QxQyaaeUaKl41-222" value="" style="line;strokeWidth=1;fillColor=none;align=left;verticalAlign=middle;spacingTop=-1;spacingLeft=3;spacingRight=3;rotatable=0;labelPosition=right;points=[];portConstraint=eastwest;strokeColor=inherit;" parent="oweBOw8QxQyaaeUaKl41-220" vertex="1">
          <mxGeometry y="40" width="160" height="8" as="geometry" />
        </mxCell>
        <mxCell id="oweBOw8QxQyaaeUaKl41-224" value="&lt;span style=&quot;color: rgb(0, 0, 0); font-family: Helvetica; font-size: 12px; font-style: normal; font-variant-ligatures: normal; font-variant-caps: normal; font-weight: 400; letter-spacing: normal; orphans: 2; text-align: left; text-indent: 0px; text-transform: none; widows: 2; word-spacing: 0px; -webkit-text-stroke-width: 0px; background-color: rgb(251, 251, 251); text-decoration-thickness: initial; text-decoration-style: initial; text-decoration-color: initial; float: none; display: inline !important;&quot;&gt;+ getAds()&lt;/span&gt;" style="text;strokeColor=none;fillColor=none;align=left;verticalAlign=top;spacingLeft=4;spacingRight=4;overflow=hidden;rotatable=0;points=[[0,0.5],[1,0.5]];portConstraint=eastwest;whiteSpace=wrap;html=1;" parent="oweBOw8QxQyaaeUaKl41-220" vertex="1">
          <mxGeometry y="48" width="160" height="26" as="geometry" />
        </mxCell>
        <mxCell id="oweBOw8QxQyaaeUaKl41-225" value="&lt;span style=&quot;color: rgb(0, 0, 0); font-family: Helvetica; font-size: 12px; font-style: normal; font-variant-ligatures: normal; font-variant-caps: normal; font-weight: 400; letter-spacing: normal; orphans: 2; text-align: left; text-indent: 0px; text-transform: none; widows: 2; word-spacing: 0px; -webkit-text-stroke-width: 0px; background-color: rgb(251, 251, 251); text-decoration-thickness: initial; text-decoration-style: initial; text-decoration-color: initial; float: none; display: inline !important;&quot;&gt;+ getShelters()&lt;/span&gt;" style="text;strokeColor=none;fillColor=none;align=left;verticalAlign=top;spacingLeft=4;spacingRight=4;overflow=hidden;rotatable=0;points=[[0,0.5],[1,0.5]];portConstraint=eastwest;whiteSpace=wrap;html=1;" parent="oweBOw8QxQyaaeUaKl41-220" vertex="1">
          <mxGeometry y="74" width="160" height="26" as="geometry" />
        </mxCell>
        <mxCell id="oweBOw8QxQyaaeUaKl41-223" value="&lt;span style=&quot;color: rgb(0, 0, 0); font-family: Helvetica; font-size: 12px; font-style: normal; font-variant-ligatures: normal; font-variant-caps: normal; font-weight: 400; letter-spacing: normal; orphans: 2; text-align: left; text-indent: 0px; text-transform: none; widows: 2; word-spacing: 0px; -webkit-text-stroke-width: 0px; background-color: rgb(251, 251, 251); text-decoration-thickness: initial; text-decoration-style: initial; text-decoration-color: initial; float: none; display: inline !important;&quot;&gt;+ getUsers()&lt;/span&gt;" style="text;strokeColor=none;fillColor=none;align=left;verticalAlign=top;spacingLeft=4;spacingRight=4;overflow=hidden;rotatable=0;points=[[0,0.5],[1,0.5]];portConstraint=eastwest;whiteSpace=wrap;html=1;" parent="oweBOw8QxQyaaeUaKl41-220" vertex="1">
          <mxGeometry y="100" width="160" height="26" as="geometry" />
        </mxCell>
        <mxCell id="3W3_1-_KSL4Sj8vSvyoJ-5" value="+ registerUser()" style="text;strokeColor=none;fillColor=none;align=left;verticalAlign=top;spacingLeft=4;spacingRight=4;overflow=hidden;rotatable=0;points=[[0,0.5],[1,0.5]];portConstraint=eastwest;whiteSpace=wrap;html=1;" parent="oweBOw8QxQyaaeUaKl41-220" vertex="1">
          <mxGeometry y="126" width="160" height="26" as="geometry" />
        </mxCell>
        <mxCell id="3W3_1-_KSL4Sj8vSvyoJ-6" value="+ authUser()" style="text;strokeColor=none;fillColor=none;align=left;verticalAlign=top;spacingLeft=4;spacingRight=4;overflow=hidden;rotatable=0;points=[[0,0.5],[1,0.5]];portConstraint=eastwest;whiteSpace=wrap;html=1;" parent="oweBOw8QxQyaaeUaKl41-220" vertex="1">
          <mxGeometry y="152" width="160" height="26" as="geometry" />
        </mxCell>
        <mxCell id="3W3_1-_KSL4Sj8vSvyoJ-7" value="+ getShelterData()" style="text;strokeColor=none;fillColor=none;align=left;verticalAlign=top;spacingLeft=4;spacingRight=4;overflow=hidden;rotatable=0;points=[[0,0.5],[1,0.5]];portConstraint=eastwest;whiteSpace=wrap;html=1;" parent="oweBOw8QxQyaaeUaKl41-220" vertex="1">
          <mxGeometry y="178" width="160" height="26" as="geometry" />
        </mxCell>
        <mxCell id="3W3_1-_KSL4Sj8vSvyoJ-8" value="+ getAdData()" style="text;strokeColor=none;fillColor=none;align=left;verticalAlign=top;spacingLeft=4;spacingRight=4;overflow=hidden;rotatable=0;points=[[0,0.5],[1,0.5]];portConstraint=eastwest;whiteSpace=wrap;html=1;" parent="oweBOw8QxQyaaeUaKl41-220" vertex="1">
          <mxGeometry y="204" width="160" height="26" as="geometry" />
        </mxCell>
        <mxCell id="3W3_1-_KSL4Sj8vSvyoJ-10" value="+ setAd()" style="text;strokeColor=none;fillColor=none;align=left;verticalAlign=top;spacingLeft=4;spacingRight=4;overflow=hidden;rotatable=0;points=[[0,0.5],[1,0.5]];portConstraint=eastwest;whiteSpace=wrap;html=1;" parent="oweBOw8QxQyaaeUaKl41-220" vertex="1">
          <mxGeometry y="230" width="160" height="26" as="geometry" />
        </mxCell>
        <mxCell id="DqO0NlKPCmwBuRBFjKLU-1" value="+ removeAd()" style="text;strokeColor=none;fillColor=none;align=left;verticalAlign=top;spacingLeft=4;spacingRight=4;overflow=hidden;rotatable=0;points=[[0,0.5],[1,0.5]];portConstraint=eastwest;whiteSpace=wrap;html=1;" parent="oweBOw8QxQyaaeUaKl41-220" vertex="1">
          <mxGeometry y="256" width="160" height="26" as="geometry" />
        </mxCell>
        <mxCell id="DqO0NlKPCmwBuRBFjKLU-2" value="+ setPermission() " style="text;strokeColor=none;fillColor=none;align=left;verticalAlign=top;spacingLeft=4;spacingRight=4;overflow=hidden;rotatable=0;points=[[0,0.5],[1,0.5]];portConstraint=eastwest;whiteSpace=wrap;html=1;" parent="oweBOw8QxQyaaeUaKl41-220" vertex="1">
          <mxGeometry y="282" width="160" height="26" as="geometry" />
        </mxCell>
        <mxCell id="3W3_1-_KSL4Sj8vSvyoJ-11" value="+ registerRequest()" style="text;strokeColor=none;fillColor=none;align=left;verticalAlign=top;spacingLeft=4;spacingRight=4;overflow=hidden;rotatable=0;points=[[0,0.5],[1,0.5]];portConstraint=eastwest;whiteSpace=wrap;html=1;" parent="oweBOw8QxQyaaeUaKl41-220" vertex="1">
          <mxGeometry y="308" width="160" height="26" as="geometry" />
        </mxCell>
        <mxCell id="DqO0NlKPCmwBuRBFjKLU-4" value="+ setShelter" style="text;strokeColor=none;fillColor=none;align=left;verticalAlign=top;spacingLeft=4;spacingRight=4;overflow=hidden;rotatable=0;points=[[0,0.5],[1,0.5]];portConstraint=eastwest;whiteSpace=wrap;html=1;" parent="oweBOw8QxQyaaeUaKl41-220" vertex="1">
          <mxGeometry y="334" width="160" height="26" as="geometry" />
        </mxCell>
        <mxCell id="oweBOw8QxQyaaeUaKl41-235" value="&lt;b style=&quot;border-color: var(--border-color);&quot;&gt;  «interface»&lt;br style=&quot;border-color: var(--border-color);&quot;&gt;Map&lt;/b&gt;" style="swimlane;fontStyle=1;align=center;verticalAlign=top;childLayout=stackLayout;horizontal=1;startSize=42;horizontalStack=0;resizeParent=1;resizeParentMax=0;resizeLast=0;collapsible=1;marginBottom=0;whiteSpace=wrap;html=1;" parent="1" vertex="1">
          <mxGeometry x="-870" y="20" width="160" height="76" as="geometry" />
        </mxCell>
        <mxCell id="oweBOw8QxQyaaeUaKl41-237" value="" style="line;strokeWidth=1;fillColor=none;align=left;verticalAlign=middle;spacingTop=-1;spacingLeft=3;spacingRight=3;rotatable=0;labelPosition=right;points=[];portConstraint=eastwest;strokeColor=inherit;" parent="oweBOw8QxQyaaeUaKl41-235" vertex="1">
          <mxGeometry y="42" width="160" height="8" as="geometry" />
        </mxCell>
        <mxCell id="oweBOw8QxQyaaeUaKl41-238" value="&lt;span style=&quot;color: rgb(0, 0, 0); font-family: Helvetica; font-size: 12px; font-style: normal; font-variant-ligatures: normal; font-variant-caps: normal; font-weight: 400; letter-spacing: normal; orphans: 2; text-align: left; text-indent: 0px; text-transform: none; widows: 2; word-spacing: 0px; -webkit-text-stroke-width: 0px; background-color: rgb(251, 251, 251); text-decoration-thickness: initial; text-decoration-style: initial; text-decoration-color: initial; float: none; display: inline !important;&quot;&gt;+ renderWithShelters():&lt;/span&gt;" style="text;strokeColor=none;fillColor=none;align=left;verticalAlign=top;spacingLeft=4;spacingRight=4;overflow=hidden;rotatable=0;points=[[0,0.5],[1,0.5]];portConstraint=eastwest;whiteSpace=wrap;html=1;" parent="oweBOw8QxQyaaeUaKl41-235" vertex="1">
          <mxGeometry y="50" width="160" height="26" as="geometry" />
        </mxCell>
        <mxCell id="oweBOw8QxQyaaeUaKl41-153" value="  PermissionRequest" style="swimlane;fontStyle=1;align=center;verticalAlign=top;childLayout=stackLayout;horizontal=1;startSize=26;horizontalStack=0;resizeParent=1;resizeParentMax=0;resizeLast=0;collapsible=1;marginBottom=0;whiteSpace=wrap;html=1;" parent="1" vertex="1">
          <mxGeometry x="919" y="650" width="250" height="138" as="geometry" />
        </mxCell>
        <mxCell id="oweBOw8QxQyaaeUaKl41-154" value="&lt;span style=&quot;color: rgb(0, 0, 0); font-family: Helvetica; font-size: 12px; font-style: normal; font-variant-ligatures: normal; font-variant-caps: normal; font-weight: 400; letter-spacing: normal; orphans: 2; text-align: left; text-indent: 0px; text-transform: none; widows: 2; word-spacing: 0px; -webkit-text-stroke-width: 0px; background-color: rgb(251, 251, 251); text-decoration-thickness: initial; text-decoration-style: initial; text-decoration-color: initial; float: none; display: inline !important;&quot;&gt;- user: User&lt;/span&gt;" style="text;strokeColor=none;fillColor=none;align=left;verticalAlign=top;spacingLeft=4;spacingRight=4;overflow=hidden;rotatable=0;points=[[0,0.5],[1,0.5]];portConstraint=eastwest;whiteSpace=wrap;html=1;" parent="oweBOw8QxQyaaeUaKl41-153" vertex="1">
          <mxGeometry y="26" width="250" height="26" as="geometry" />
        </mxCell>
        <mxCell id="oweBOw8QxQyaaeUaKl41-158" value="&lt;span style=&quot;color: rgb(0, 0, 0); font-family: Helvetica; font-size: 12px; font-style: normal; font-variant-ligatures: normal; font-variant-caps: normal; font-weight: 400; letter-spacing: normal; orphans: 2; text-align: left; text-indent: 0px; text-transform: none; widows: 2; word-spacing: 0px; -webkit-text-stroke-width: 0px; background-color: rgb(251, 251, 251); text-decoration-thickness: initial; text-decoration-style: initial; text-decoration-color: initial; float: none; display: inline !important;&quot;&gt;- shelter: Shelter&lt;/span&gt;" style="text;strokeColor=none;fillColor=none;align=left;verticalAlign=top;spacingLeft=4;spacingRight=4;overflow=hidden;rotatable=0;points=[[0,0.5],[1,0.5]];portConstraint=eastwest;whiteSpace=wrap;html=1;" parent="oweBOw8QxQyaaeUaKl41-153" vertex="1">
          <mxGeometry y="52" width="250" height="26" as="geometry" />
        </mxCell>
        <mxCell id="oweBOw8QxQyaaeUaKl41-157" value="&lt;span style=&quot;color: rgb(0, 0, 0); font-family: Helvetica; font-size: 12px; font-style: normal; font-variant-ligatures: normal; font-variant-caps: normal; font-weight: 400; letter-spacing: normal; orphans: 2; text-align: left; text-indent: 0px; text-transform: none; widows: 2; word-spacing: 0px; -webkit-text-stroke-width: 0px; background-color: rgb(251, 251, 251); text-decoration-thickness: initial; text-decoration-style: initial; text-decoration-color: initial; float: none; display: inline !important;&quot;&gt;- permissionType: Permission&lt;/span&gt;" style="text;strokeColor=none;fillColor=none;align=left;verticalAlign=top;spacingLeft=4;spacingRight=4;overflow=hidden;rotatable=0;points=[[0,0.5],[1,0.5]];portConstraint=eastwest;whiteSpace=wrap;html=1;" parent="oweBOw8QxQyaaeUaKl41-153" vertex="1">
          <mxGeometry y="78" width="250" height="26" as="geometry" />
        </mxCell>
        <mxCell id="oweBOw8QxQyaaeUaKl41-155" value="" style="line;strokeWidth=1;fillColor=none;align=left;verticalAlign=middle;spacingTop=-1;spacingLeft=3;spacingRight=3;rotatable=0;labelPosition=right;points=[];portConstraint=eastwest;strokeColor=inherit;" parent="oweBOw8QxQyaaeUaKl41-153" vertex="1">
          <mxGeometry y="104" width="250" height="8" as="geometry" />
        </mxCell>
        <mxCell id="oweBOw8QxQyaaeUaKl41-156" value="&lt;span style=&quot;color: rgb(0, 0, 0); font-family: Helvetica; font-size: 12px; font-style: normal; font-variant-ligatures: normal; font-variant-caps: normal; font-weight: 400; letter-spacing: normal; orphans: 2; text-align: left; text-indent: 0px; text-transform: none; widows: 2; word-spacing: 0px; -webkit-text-stroke-width: 0px; background-color: rgb(251, 251, 251); text-decoration-thickness: initial; text-decoration-style: initial; text-decoration-color: initial; float: none; display: inline !important;&quot;&gt;+ cancelRequest()&lt;/span&gt;" style="text;strokeColor=none;fillColor=none;align=left;verticalAlign=top;spacingLeft=4;spacingRight=4;overflow=hidden;rotatable=0;points=[[0,0.5],[1,0.5]];portConstraint=eastwest;whiteSpace=wrap;html=1;" parent="oweBOw8QxQyaaeUaKl41-153" vertex="1">
          <mxGeometry y="112" width="250" height="26" as="geometry" />
        </mxCell>
        <mxCell id="oweBOw8QxQyaaeUaKl41-244" value="" style="endArrow=diamondThin;startArrow=diamondThin;endFill=1;startFill=1;html=1;rounded=0;endSize=24;startSize=24;" parent="1" source="oweBOw8QxQyaaeUaKl41-35" target="oweBOw8QxQyaaeUaKl41-153" edge="1">
          <mxGeometry width="160" relative="1" as="geometry">
            <mxPoint x="100" y="500" as="sourcePoint" />
            <mxPoint x="260" y="500" as="targetPoint" />
          </mxGeometry>
        </mxCell>
        <mxCell id="oweBOw8QxQyaaeUaKl41-245" value="" style="endArrow=diamondThin;endFill=0;endSize=24;html=1;rounded=0;" parent="1" source="oweBOw8QxQyaaeUaKl41-69" target="oweBOw8QxQyaaeUaKl41-162" edge="1">
          <mxGeometry width="160" relative="1" as="geometry">
            <mxPoint x="440" y="500" as="sourcePoint" />
            <mxPoint x="600" y="500" as="targetPoint" />
          </mxGeometry>
        </mxCell>
        <mxCell id="oweBOw8QxQyaaeUaKl41-246" value="Core" style="shape=umlFrame;whiteSpace=wrap;html=1;pointerEvents=0;" parent="1" vertex="1">
          <mxGeometry x="-80" y="-1700" width="680" height="713" as="geometry" />
        </mxCell>
        <mxCell id="oweBOw8QxQyaaeUaKl41-247" value="MiddleScreen" style="shape=umlFrame;whiteSpace=wrap;html=1;pointerEvents=0;width=90;height=30;" parent="1" vertex="1">
          <mxGeometry x="-120" y="-440" width="520" height="880" as="geometry" />
        </mxCell>
        <mxCell id="oweBOw8QxQyaaeUaKl41-249" value="LeftScreen" style="shape=umlFrame;whiteSpace=wrap;html=1;pointerEvents=0;width=80;height=33;" parent="1" vertex="1">
          <mxGeometry x="-1130" y="-443" width="970" height="1003" as="geometry" />
        </mxCell>
        <mxCell id="oweBOw8QxQyaaeUaKl41-250" value="RightScreen" style="shape=umlFrame;whiteSpace=wrap;html=1;pointerEvents=0;width=80;height=33;" parent="1" vertex="1">
          <mxGeometry x="600" y="-443" width="760" height="483" as="geometry" />
        </mxCell>
        <mxCell id="oweBOw8QxQyaaeUaKl41-251" value="AdContent" style="shape=umlFrame;whiteSpace=wrap;html=1;pointerEvents=0;width=80;height=30;" parent="1" vertex="1">
          <mxGeometry x="-670" y="620" width="300" height="430" as="geometry" />
        </mxCell>
        <mxCell id="oweBOw8QxQyaaeUaKl41-252" value="Permissions" style="shape=umlFrame;whiteSpace=wrap;html=1;pointerEvents=0;width=80;height=30;" parent="1" vertex="1">
          <mxGeometry x="880" y="228" width="320" height="572" as="geometry" />
        </mxCell>
        <mxCell id="oweBOw8QxQyaaeUaKl41-253" value="Pets" style="shape=umlFrame;whiteSpace=wrap;html=1;pointerEvents=0;" parent="1" vertex="1">
          <mxGeometry x="1241" y="240" width="399" height="650" as="geometry" />
        </mxCell>
        <mxCell id="oweBOw8QxQyaaeUaKl41-1" value="" style="endArrow=diamondThin;endFill=1;endSize=24;html=1;rounded=0;" parent="1" source="oweBOw8QxQyaaeUaKl41-124" target="oweBOw8QxQyaaeUaKl41-193" edge="1">
          <mxGeometry width="160" relative="1" as="geometry">
            <mxPoint x="373" y="728" as="sourcePoint" />
            <mxPoint x="310" y="758" as="targetPoint" />
          </mxGeometry>
        </mxCell>
        <mxCell id="gNH5sCob12Ak3Dl_MP5L-3" value="«interface»&lt;br style=&quot;border-color: var(--border-color);&quot;&gt;Screen" style="swimlane;fontStyle=1;align=center;verticalAlign=top;childLayout=stackLayout;horizontal=1;startSize=40;horizontalStack=0;resizeParent=1;resizeParentMax=0;resizeLast=0;collapsible=1;marginBottom=0;whiteSpace=wrap;html=1;" parent="1" vertex="1">
          <mxGeometry x="45" y="-860" width="160" height="74" as="geometry" />
        </mxCell>
        <mxCell id="gNH5sCob12Ak3Dl_MP5L-4" value="" style="line;strokeWidth=1;fillColor=none;align=left;verticalAlign=middle;spacingTop=-1;spacingLeft=3;spacingRight=3;rotatable=0;labelPosition=right;points=[];portConstraint=eastwest;strokeColor=inherit;" parent="gNH5sCob12Ak3Dl_MP5L-3" vertex="1">
          <mxGeometry y="40" width="160" height="8" as="geometry" />
        </mxCell>
        <mxCell id="gNH5sCob12Ak3Dl_MP5L-16" value="+ render()" style="text;strokeColor=none;fillColor=none;align=left;verticalAlign=top;spacingLeft=4;spacingRight=4;overflow=hidden;rotatable=0;points=[[0,0.5],[1,0.5]];portConstraint=eastwest;whiteSpace=wrap;html=1;" parent="gNH5sCob12Ak3Dl_MP5L-3" vertex="1">
          <mxGeometry y="48" width="160" height="26" as="geometry" />
        </mxCell>
        <mxCell id="gNH5sCob12Ak3Dl_MP5L-21" value="Implements" style="endArrow=block;dashed=1;endFill=0;endSize=12;html=1;rounded=0;" parent="1" source="oweBOw8QxQyaaeUaKl41-100" target="gNH5sCob12Ak3Dl_MP5L-3" edge="1">
          <mxGeometry width="160" relative="1" as="geometry">
            <mxPoint x="-200" y="-340" as="sourcePoint" />
            <mxPoint x="-40" y="-340" as="targetPoint" />
          </mxGeometry>
        </mxCell>
        <mxCell id="gNH5sCob12Ak3Dl_MP5L-22" value="" style="endArrow=diamondThin;endFill=1;endSize=24;html=1;rounded=0;" parent="1" source="gNH5sCob12Ak3Dl_MP5L-3" target="oweBOw8QxQyaaeUaKl41-205" edge="1">
          <mxGeometry width="160" relative="1" as="geometry">
            <mxPoint x="30" y="-910" as="sourcePoint" />
            <mxPoint x="190" y="-910" as="targetPoint" />
          </mxGeometry>
        </mxCell>
        <mxCell id="gNH5sCob12Ak3Dl_MP5L-23" value="Implements" style="endArrow=block;dashed=1;endFill=0;endSize=12;html=1;rounded=0;" parent="1" source="oweBOw8QxQyaaeUaKl41-201" target="gNH5sCob12Ak3Dl_MP5L-3" edge="1">
          <mxGeometry width="160" relative="1" as="geometry">
            <mxPoint x="30" y="-900" as="sourcePoint" />
            <mxPoint x="190" y="-900" as="targetPoint" />
          </mxGeometry>
        </mxCell>
        <mxCell id="gNH5sCob12Ak3Dl_MP5L-25" value="Implements" style="endArrow=block;dashed=1;endFill=0;endSize=12;html=1;rounded=0;" parent="1" source="oweBOw8QxQyaaeUaKl41-185" target="gNH5sCob12Ak3Dl_MP5L-3" edge="1">
          <mxGeometry x="0.0005" width="160" relative="1" as="geometry">
            <mxPoint x="135" y="-402" as="sourcePoint" />
            <mxPoint x="135" y="-776" as="targetPoint" />
            <mxPoint as="offset" />
          </mxGeometry>
        </mxCell>
        <mxCell id="gNH5sCob12Ak3Dl_MP5L-26" value="  StartingScreen" style="swimlane;fontStyle=1;align=center;verticalAlign=top;childLayout=stackLayout;horizontal=1;startSize=26;horizontalStack=0;resizeParent=1;resizeParentMax=0;resizeLast=0;collapsible=1;marginBottom=0;whiteSpace=wrap;html=1;" parent="1" vertex="1">
          <mxGeometry x="520" y="-879" width="160" height="138" as="geometry" />
        </mxCell>
        <mxCell id="gNH5sCob12Ak3Dl_MP5L-28" value="" style="line;strokeWidth=1;fillColor=none;align=left;verticalAlign=middle;spacingTop=-1;spacingLeft=3;spacingRight=3;rotatable=0;labelPosition=right;points=[];portConstraint=eastwest;strokeColor=inherit;" parent="gNH5sCob12Ak3Dl_MP5L-26" vertex="1">
          <mxGeometry y="26" width="160" height="8" as="geometry" />
        </mxCell>
        <mxCell id="gNH5sCob12Ak3Dl_MP5L-29" value="- login()" style="text;strokeColor=none;fillColor=none;align=left;verticalAlign=top;spacingLeft=4;spacingRight=4;overflow=hidden;rotatable=0;points=[[0,0.5],[1,0.5]];portConstraint=eastwest;whiteSpace=wrap;html=1;" parent="gNH5sCob12Ak3Dl_MP5L-26" vertex="1">
          <mxGeometry y="34" width="160" height="26" as="geometry" />
        </mxCell>
        <mxCell id="gNH5sCob12Ak3Dl_MP5L-30" value="- register()" style="text;strokeColor=none;fillColor=none;align=left;verticalAlign=top;spacingLeft=4;spacingRight=4;overflow=hidden;rotatable=0;points=[[0,0.5],[1,0.5]];portConstraint=eastwest;whiteSpace=wrap;html=1;" parent="gNH5sCob12Ak3Dl_MP5L-26" vertex="1">
          <mxGeometry y="60" width="160" height="26" as="geometry" />
        </mxCell>
        <mxCell id="gNH5sCob12Ak3Dl_MP5L-31" value="- resetPassword()" style="text;strokeColor=none;fillColor=none;align=left;verticalAlign=top;spacingLeft=4;spacingRight=4;overflow=hidden;rotatable=0;points=[[0,0.5],[1,0.5]];portConstraint=eastwest;whiteSpace=wrap;html=1;" parent="gNH5sCob12Ak3Dl_MP5L-26" vertex="1">
          <mxGeometry y="86" width="160" height="26" as="geometry" />
        </mxCell>
        <mxCell id="OQqH39_nWWsHGgEQ9Ou6-4" value="- render()" style="text;strokeColor=none;fillColor=none;align=left;verticalAlign=top;spacingLeft=4;spacingRight=4;overflow=hidden;rotatable=0;points=[[0,0.5],[1,0.5]];portConstraint=eastwest;whiteSpace=wrap;html=1;" parent="gNH5sCob12Ak3Dl_MP5L-26" vertex="1">
          <mxGeometry y="112" width="160" height="26" as="geometry" />
        </mxCell>
        <mxCell id="gNH5sCob12Ak3Dl_MP5L-32" value="Implements" style="endArrow=block;dashed=1;endFill=0;endSize=12;html=1;rounded=0;" parent="1" source="gNH5sCob12Ak3Dl_MP5L-26" target="gNH5sCob12Ak3Dl_MP5L-3" edge="1">
          <mxGeometry x="-0.0023" width="160" relative="1" as="geometry">
            <mxPoint x="910" y="-366" as="sourcePoint" />
            <mxPoint x="199" y="-776" as="targetPoint" />
            <mxPoint as="offset" />
          </mxGeometry>
        </mxCell>
        <mxCell id="gNH5sCob12Ak3Dl_MP5L-35" value="&lt;br&gt;" style="text;html=1;align=center;verticalAlign=middle;resizable=0;points=[];autosize=1;strokeColor=none;fillColor=none;" parent="1" vertex="1">
          <mxGeometry x="200" y="25" width="20" height="30" as="geometry" />
        </mxCell>
        <mxCell id="gNH5sCob12Ak3Dl_MP5L-36" value="Implements" style="endArrow=block;dashed=1;endFill=0;endSize=12;html=1;rounded=0;" parent="1" source="oweBOw8QxQyaaeUaKl41-197" target="oweBOw8QxQyaaeUaKl41-201" edge="1">
          <mxGeometry width="160" relative="1" as="geometry">
            <mxPoint x="246" y="130" as="sourcePoint" />
            <mxPoint x="151" y="-86" as="targetPoint" />
          </mxGeometry>
        </mxCell>
        <mxCell id="gNH5sCob12Ak3Dl_MP5L-39" value="  SheltersListFilters" style="swimlane;fontStyle=1;align=center;verticalAlign=top;childLayout=stackLayout;horizontal=1;startSize=26;horizontalStack=0;resizeParent=1;resizeParentMax=0;resizeLast=0;collapsible=1;marginBottom=0;whiteSpace=wrap;html=1;" parent="1" vertex="1">
          <mxGeometry x="-330" y="-131" width="160" height="112" as="geometry" />
        </mxCell>
        <mxCell id="gNH5sCob12Ak3Dl_MP5L-40" value="&lt;span style=&quot;color: rgb(0, 0, 0); font-family: Helvetica; font-size: 12px; font-style: normal; font-variant-ligatures: normal; font-variant-caps: normal; font-weight: 400; letter-spacing: normal; orphans: 2; text-align: left; text-indent: 0px; text-transform: none; widows: 2; word-spacing: 0px; -webkit-text-stroke-width: 0px; background-color: rgb(251, 251, 251); text-decoration-thickness: initial; text-decoration-style: initial; text-decoration-color: initial; float: none; display: inline !important;&quot;&gt;- city: string&lt;/span&gt;" style="text;strokeColor=none;fillColor=none;align=left;verticalAlign=top;spacingLeft=4;spacingRight=4;overflow=hidden;rotatable=0;points=[[0,0.5],[1,0.5]];portConstraint=eastwest;whiteSpace=wrap;html=1;" parent="gNH5sCob12Ak3Dl_MP5L-39" vertex="1">
          <mxGeometry y="26" width="160" height="26" as="geometry" />
        </mxCell>
        <mxCell id="gNH5sCob12Ak3Dl_MP5L-43" value="- maxDistance: number" style="text;strokeColor=none;fillColor=none;align=left;verticalAlign=top;spacingLeft=4;spacingRight=4;overflow=hidden;rotatable=0;points=[[0,0.5],[1,0.5]];portConstraint=eastwest;whiteSpace=wrap;html=1;" parent="gNH5sCob12Ak3Dl_MP5L-39" vertex="1">
          <mxGeometry y="52" width="160" height="26" as="geometry" />
        </mxCell>
        <mxCell id="gNH5sCob12Ak3Dl_MP5L-41" value="" style="line;strokeWidth=1;fillColor=none;align=left;verticalAlign=middle;spacingTop=-1;spacingLeft=3;spacingRight=3;rotatable=0;labelPosition=right;points=[];portConstraint=eastwest;strokeColor=inherit;" parent="gNH5sCob12Ak3Dl_MP5L-39" vertex="1">
          <mxGeometry y="78" width="160" height="8" as="geometry" />
        </mxCell>
        <mxCell id="gNH5sCob12Ak3Dl_MP5L-42" value="+ setFilters()" style="text;strokeColor=none;fillColor=none;align=left;verticalAlign=top;spacingLeft=4;spacingRight=4;overflow=hidden;rotatable=0;points=[[0,0.5],[1,0.5]];portConstraint=eastwest;whiteSpace=wrap;html=1;" parent="gNH5sCob12Ak3Dl_MP5L-39" vertex="1">
          <mxGeometry y="86" width="160" height="26" as="geometry" />
        </mxCell>
        <mxCell id="OQqH39_nWWsHGgEQ9Ou6-1" value="&lt;b&gt;«exception»&lt;br&gt;User Registration failed&lt;/b&gt;" style="html=1;whiteSpace=wrap;container=0;" parent="1" vertex="1">
          <mxGeometry x="780" y="-730" width="150" height="50" as="geometry" />
        </mxCell>
        <mxCell id="OQqH39_nWWsHGgEQ9Ou6-2" value="throws" style="endArrow=open;endSize=12;dashed=1;html=1;rounded=0;" parent="1" source="gNH5sCob12Ak3Dl_MP5L-26" target="OQqH39_nWWsHGgEQ9Ou6-1" edge="1">
          <mxGeometry width="160" relative="1" as="geometry">
            <mxPoint x="670" y="-690" as="sourcePoint" />
            <mxPoint x="770" y="-690" as="targetPoint" />
          </mxGeometry>
        </mxCell>
      </root>
    </mxGraphModel>
  </diagram>
</mxfile>
